<svg width="1280" height="720" xmlns="http://www.w3.org/2000/svg" xmlns:xlink="http://www.w3.org/1999/xlink" overflow="hidden"><defs><filter id="fx0" x="-10%" y="-10%" width="120%" height="120%" filterUnits="userSpaceOnUse" primitiveUnits="userSpaceOnUse"><feComponentTransfer color-interpolation-filters="sRGB"><feFuncR type="discrete" tableValues="0.25098 0.25098"/><feFuncG type="discrete" tableValues="0.25098 0.25098"/><feFuncB type="discrete" tableValues="0.25098 0.25098"/><feFuncA type="linear" slope="0.301961" intercept="0"/></feComponentTransfer><feGaussianBlur stdDeviation="2.66667 2.66667"/></filter><filter id="fx1" x="-10%" y="-10%" width="120%" height="120%" filterUnits="userSpaceOnUse" primitiveUnits="userSpaceOnUse"><feComponentTransfer color-interpolation-filters="sRGB"><feFuncR type="discrete" tableValues="0.0784314 0.0784314"/><feFuncG type="discrete" tableValues="0.305882 0.305882"/><feFuncB type="discrete" tableValues="0.458824 0.458824"/><feFuncA type="linear" slope="0.4" intercept="0"/></feComponentTransfer><feGaussianBlur stdDeviation="4.88889 4.88889"/></filter><filter id="fx2" x="-10%" y="-10%" width="120%" height="120%" filterUnits="userSpaceOnUse" primitiveUnits="userSpaceOnUse"><feComponentTransfer color-interpolation-filters="sRGB"><feFuncR type="discrete" tableValues="0.0784314 0.0784314"/><feFuncG type="discrete" tableValues="0.305882 0.305882"/><feFuncB type="discrete" tableValues="0.458824 0.458824"/><feFuncA type="linear" slope="0.4" intercept="0"/></feComponentTransfer><feGaussianBlur stdDeviation="4.88889 4.88889"/></filter><filter id="fx3" x="-10%" y="-10%" width="120%" height="120%" filterUnits="userSpaceOnUse" primitiveUnits="userSpaceOnUse"><feComponentTransfer color-interpolation-filters="sRGB"><feFuncR type="discrete" tableValues="0.0784314 0.0784314"/><feFuncG type="discrete" tableValues="0.305882 0.305882"/><feFuncB type="discrete" tableValues="0.458824 0.458824"/><feFuncA type="linear" slope="0.4" intercept="0"/></feComponentTransfer><feGaussianBlur stdDeviation="4.88889 4.88889"/></filter><filter id="fx4" x="-10%" y="-10%" width="120%" height="120%" filterUnits="userSpaceOnUse" primitiveUnits="userSpaceOnUse"><feComponentTransfer color-interpolation-filters="sRGB"><feFuncR type="discrete" tableValues="0.0784314 0.0784314"/><feFuncG type="discrete" tableValues="0.305882 0.305882"/><feFuncB type="discrete" tableValues="0.458824 0.458824"/><feFuncA type="linear" slope="0.4" intercept="0"/></feComponentTransfer><feGaussianBlur stdDeviation="4.88889 4.88889"/></filter><clipPath id="clip5"><rect x="0" y="0" width="1280" height="720"/></clipPath><linearGradient x1="640" y1="0" x2="640" y2="720" gradientUnits="userSpaceOnUse" spreadMethod="reflect" id="fill6"><stop offset="0" stop-color="#144E75"/><stop offset="0.47" stop-color="#144E75"/><stop offset="0.51" stop-color="#B6C3CC"/><stop offset="1" stop-color="#E5E5E5"/></linearGradient><clipPath id="clip7"><rect x="-2" y="-11" width="162" height="758"/></clipPath><clipPath id="clip8"><rect x="0" y="0" width="159" height="736"/></clipPath><linearGradient x1="69" y1="0" x2="69" y2="720" gradientUnits="userSpaceOnUse" spreadMethod="reflect" id="fill9"><stop offset="0" stop-color="#144E75"/><stop offset="0.47" stop-color="#144E75"/><stop offset="0.51" stop-color="#B6C3CC"/><stop offset="1" stop-color="#E5E5E5"/></linearGradient><clipPath id="clip10"><rect x="-5" y="-5" width="1172" height="152"/></clipPath><clipPath id="clip11"><rect x="0" y="0" width="1148" height="143"/></clipPath><clipPath id="clip12"><rect x="-5" y="-5" width="351" height="595"/></clipPath><clipPath id="clip13"><rect x="0" y="0" width="342" height="580"/></clipPath><clipPath id="clip14"><rect x="409" y="181" width="38" height="39"/></clipPath><clipPath id="clip15"><rect x="409" y="181" width="38" height="39"/></clipPath><clipPath id="clip16"><rect x="409" y="181" width="38" height="39"/></clipPath><clipPath id="clip17"><rect x="-5" y="-5" width="351" height="595"/></clipPath><clipPath id="clip18"><rect x="0" y="0" width="342" height="580"/></clipPath><clipPath id="clip19"><rect x="725" y="181" width="39" height="38"/></clipPath><clipPath id="clip20"><rect x="725" y="181" width="39" height="38"/></clipPath><clipPath id="clip21"><rect x="725" y="181" width="39" height="38"/></clipPath><clipPath id="clip22"><rect x="-5" y="-5" width="351" height="595"/></clipPath><clipPath id="clip23"><rect x="0" y="0" width="341" height="580"/></clipPath><clipPath id="clip24"><rect x="1051" y="181" width="39" height="39"/></clipPath><clipPath id="clip25"><rect x="1051" y="181" width="39" height="39"/></clipPath><clipPath id="clip26"><rect x="1051" y="181" width="39" height="39"/></clipPath><clipPath id="clip27"><rect x="1231" y="175" width="40" height="29"/></clipPath><clipPath id="clip28"><rect x="1231" y="175" width="40" height="29"/></clipPath><clipPath id="clip29"><rect x="1231" y="175" width="40" height="29"/></clipPath></defs><g clip-path="url(#clip5)"><rect x="0" y="0" width="1280" height="720" fill="#FFFFFF"/><rect x="0" y="0" width="1280" height="720" fill="url(#fill6)"/><g clip-path="url(#clip7)" filter="url(#fx0)" transform="translate(-1 -8)"><g clip-path="url(#clip8)"><rect x="9" y="0.8" width="140.76" height="734.4" fill="#FF0000"/></g></g><rect x="0" y="0" width="138" height="720" fill="url(#fill9)"/><g clip-path="url(#clip10)" filter="url(#fx1)" transform="translate(147 35)"><g clip-path="url(#clip11)"><path d="M15.6667 34.5173C15.6667 24.2905 23.9571 16 34.1838 16L1132.39 16C1142.62 16 1150.91 24.2905 1150.91 34.5173L1150.91 108.583C1150.91 118.81 1142.62 127.1 1132.39 127.1L34.1838 127.1C23.9571 127.1 15.6667 118.81 15.6667 108.583Z" fill="#E5E5E5" fill-rule="evenodd"/></g></g><path d="M156 69.3339C156 59.2084 164.208 51 174.334 51L1261.67 51C1271.79 51 1280 59.2084 1280 69.3339L1280 142.666C1280 152.792 1271.79 161 1261.67 161L174.334 161C164.208 161 156 152.792 156 142.666Z" fill="#E5E5E5" fill-rule="evenodd"/><g clip-path="url(#clip12)" filter="url(#fx2)" transform="translate(147 155)"><g clip-path="url(#clip13)"><path d="M15.6667 67.6772C15.6667 39.1367 38.8033 16 67.3439 16L274.047 16C302.588 16 325.724 39.1367 325.724 67.6772L325.724 518.813C325.724 547.353 302.588 570.49 274.047 570.49L67.3439 570.49C38.8033 570.49 15.6667 547.353 15.6667 518.813Z" fill="#E5E5E5" fill-rule="evenodd"/></g></g><path d="M156 222.166C156 193.908 178.908 171 207.166 171L411.822 171C440.08 171 462.988 193.908 462.988 222.166L462.988 668.834C462.988 697.092 440.08 720 411.822 720L207.166 720C178.908 720 156 697.092 156 668.834Z" fill="#E5E5E5" fill-rule="evenodd"/><g clip-path="url(#clip14)"><g clip-path="url(#clip15)"><g clip-path="url(#clip16)"><path d="M24.9098 19.7917C23.5719 18.6517 21.8342 18.1173 20.1875 17.6027L20.1875 8.03146C21.7863 8.18338 23.2803 8.89398 24.4071 10.0383L26.3071 8.2175C24.6811 6.56343 22.5022 5.567 20.1875 5.41896L20.1875 1.97917 17.8125 1.97917 17.8125 5.56938C16.9992 5.72767 16.2146 6.00792 15.485 6.40063 12.4846 8.03542 10.9527 11.875 12.1838 15.109 13.1377 17.6027 15.4375 18.715 17.8125 19.5502L17.8125 29.9131C15.9719 29.6875 14.444 28.6306 13.1773 27.3125L11.2773 29.1294C12.182 30.1559 13.2607 31.0149 14.4638 31.6667 15.5153 32.1669 16.651 32.4663 17.8125 32.5494L17.8125 36.0208 20.1875 36.0208 20.1875 32.4583C22.9108 32.0031 25.4125 30.3288 26.4892 27.7083 27.5658 25.0879 27.174 21.7273 24.9098 19.7917ZM15.8333 15.7265C13.6562 13.8898 14.1867 10.3352 16.4944 8.86271 16.9034 8.60039 17.347 8.39653 17.8125 8.25708L17.8125 16.8427C17.0958 16.5821 16.4272 16.2049 15.8333 15.7265ZM22.994 28.3219C22.2214 29.0772 21.2466 29.5927 20.1875 29.8063L20.1875 20.3498C21.7708 20.8921 23.5877 21.5808 24.2329 23.2671 24.8781 24.9533 24.229 27.0631 22.994 28.3219Z" fill="#144E75" transform="matrix(1 0 0 1.02632 409 181)"/></g></g></g><text fill="#144E75" font-family="Calibri,Calibri_MSFontService,sans-serif" font-weight="700" font-size="21" transform="translate(192.241 205)">Revenue</text><g clip-path="url(#clip17)" filter="url(#fx3)" transform="translate(472 155)"><g clip-path="url(#clip18)"><path d="M15.6667 67.6772C15.6667 39.1367 38.8033 16 67.3439 16L274.047 16C302.588 16 325.724 39.1367 325.724 67.6772L325.724 518.813C325.724 547.353 302.588 570.49 274.047 570.49L67.3439 570.49C38.8033 570.49 15.6667 547.353 15.6667 518.813Z" fill="#E5E5E5" fill-rule="evenodd"/></g></g><path d="M481 222.166C481 193.908 503.908 171 532.166 171L736.822 171C765.08 171 787.988 193.908 787.988 222.166L787.988 668.834C787.988 697.092 765.08 720 736.822 720L532.166 720C503.908 720 481 697.092 481 668.834Z" fill="#E5E5E5" fill-rule="evenodd"/><g clip-path="url(#clip19)"><g clip-path="url(#clip20)"><g clip-path="url(#clip21)"><path d="M34.0417 28.1042 32.8542 29.2917 5.54167 29.2917 3.95833 27.7083 3.95833 19.7917 5.54167 18.2083 32.8542 18.2083 34.0417 19.3958 34.0417 28.1042ZM1.58333 15.8333 1.58333 31.6667 36.4167 31.6667 36.4167 15.8333 1.58333 15.8333Z" fill="#144E75" transform="matrix(1.02632 0 0 1 725 181)"/><path d="M22.1667 23.75C22.1667 25.9361 20.7489 27.7083 19 27.7083 17.2511 27.7083 15.8333 25.9361 15.8333 23.75 15.8333 21.5639 17.2511 19.7917 19 19.7917 20.7489 19.7917 22.1667 21.5639 22.1667 23.75Z" fill="#144E75" transform="matrix(1.02632 0 0 1 725 181)"/><path d="M10.2917 23.75C10.2917 24.4058 9.76 24.9375 9.10417 24.9375 8.44833 24.9375 7.91667 24.4058 7.91667 23.75 7.91667 23.0942 8.44833 22.5625 9.10417 22.5625 9.76 22.5625 10.2917 23.0942 10.2917 23.75Z" fill="#144E75" transform="matrix(1.02632 0 0 1 725 181)"/><path d="M30.0833 23.75C30.0833 24.4058 29.5517 24.9375 28.8958 24.9375 28.24 24.9375 27.7083 24.4058 27.7083 23.75 27.7083 23.0942 28.24 22.5625 28.8958 22.5625 29.5517 22.5625 30.0833 23.0942 30.0833 23.75Z" fill="#144E75" transform="matrix(1.02632 0 0 1 725 181)"/><path d="M26.0854 8.19375 26.6792 9.69792 29.0542 9.22292 27.3917 5.06667 6.09583 13.775 18.2875 11.3604Z" fill="#144E75" transform="matrix(1.02632 0 0 1 725 181)"/><path d="M24.0271 14.25 30.2812 13.0229 30.5583 14.25 32.9729 14.25 32.1813 10.2125 11.875 14.25Z" fill="#144E75" transform="matrix(1.02632 0 0 1 725 181)"/></g></g></g><text fill="#144E75" font-family="Calibri,Calibri_MSFontService,sans-serif" font-weight="700" font-size="21" transform="translate(523.554 205)">Gross Profit</text><g clip-path="url(#clip22)" filter="url(#fx4)" transform="translate(796 155)"><g clip-path="url(#clip23)"><path d="M15.6667 67.5111C15.6667 39.0623 38.729 16 67.1778 16L273.216 16C301.664 16 324.727 39.0623 324.727 67.5111L324.727 518.979C324.727 547.428 301.664 570.49 273.216 570.49L67.1778 570.49C38.729 570.49 15.6667 547.428 15.6667 518.979Z" fill="#E5E5E5" fill-rule="evenodd"/></g></g><path d="M805 222.001C805 193.834 827.834 171 856.001 171L1060 171C1088.17 171 1111 193.834 1111 222.001L1111 668.999C1111 697.166 1088.17 720 1060 720L856.001 720C827.834 720 805 697.166 805 668.999Z" fill="#E5E5E5" fill-rule="evenodd"/><g clip-path="url(#clip24)"><g clip-path="url(#clip25)"><g clip-path="url(#clip26)"><path d="M1061.97 207.812C1061.97 209.383 1060.7 210.656 1059.12 210.656 1057.55 210.656 1056.28 209.383 1056.28 207.812 1056.28 206.242 1057.55 204.969 1059.12 204.969 1060.7 204.969 1061.97 206.242 1061.97 207.812Z" fill="#144E75"/><path d="M1085.53 207.812C1085.53 209.383 1084.26 210.656 1082.69 210.656 1081.12 210.656 1079.84 209.383 1079.84 207.812 1079.84 206.242 1081.12 204.969 1082.69 204.969 1084.26 204.969 1085.53 206.242 1085.53 207.812Z" fill="#144E75"/><path d="M1052.62 190.75 1075.38 190.75 1075.38 200.5 1052.62 200.5Z" fill="#144E75"/><path d="M1078.62 194.812 1081.06 194.812C1081.79 194.812 1082.44 195.3 1082.61 195.991L1083.42 198.794C1083.42 198.834 1083.46 198.834 1083.46 198.875L1078.62 198.875 1078.62 194.812ZM1081.06 193.188 1077 193.188 1077 198.875 1077 201.312 1077 207.812 1078.62 207.812C1078.62 205.578 1080.45 203.75 1082.69 203.75 1084.92 203.75 1086.75 205.578 1086.75 207.812 1087.64 207.812 1088.38 207.081 1088.38 206.188L1088.38 202.125C1088.38 201.597 1088.13 201.15 1087.72 200.825L1085.57 199.2C1085.29 198.997 1085.08 198.672 1085 198.347L1084.19 195.544C1083.78 194.163 1082.48 193.188 1081.06 193.188Z" fill="#144E75"/><path d="M1075.38 207.812 1063.19 207.812C1063.19 205.578 1061.36 203.75 1059.12 203.75 1056.89 203.75 1055.06 205.578 1055.06 207.812L1052.62 207.812 1052.62 202.125 1075.38 202.125 1075.38 207.812Z" fill="#144E75"/></g></g></g><text fill="#144E75" font-family="Calibri,Calibri_MSFontService,sans-serif" font-weight="700" font-size="21" transform="translate(839.827 205)">Units Sold</text><path d="M1129 196.167C1129 182.268 1140.27 171 1154.17 171L1254.83 171C1268.73 171 1280 182.268 1280 196.167L1280 685.833C1280 699.732 1268.73 711 1254.83 711L1154.17 711C1140.27 711 1129 699.732 1129 685.833Z" fill="#E5E5E5" fill-rule="evenodd"/><g clip-path="url(#clip27)"><g clip-path="url(#clip28)"><g clip-path="url(#clip29)"><path d="M11.4792 19.3333 17.5208 19.3333C18.0344 19.3333 18.4271 19.726 18.4271 20.2396 18.4271 20.7531 18.0344 21.1458 17.5208 21.1458L11.4792 21.1458C10.9656 21.1458 10.5729 20.7531 10.5729 20.2396 10.5729 19.726 10.9656 19.3333 11.4792 19.3333Z" fill="#144E75" transform="matrix(1.37931 0 0 1 1231 175)"/><path d="M11.4792 22.3542 17.5208 22.3542C18.0344 22.3542 18.4271 22.7469 18.4271 23.2604 18.4271 23.774 18.0344 24.1667 17.5208 24.1667L11.4792 24.1667C10.9656 24.1667 10.5729 23.774 10.5729 23.2604 10.5729 22.7469 10.9656 22.3542 11.4792 22.3542Z" fill="#144E75" transform="matrix(1.37931 0 0 1 1231 175)"/><path d="M12.5365 25.375C12.6271 26.4021 13.4729 27.1875 14.5 27.1875 15.5271 27.1875 16.3729 26.4021 16.4635 25.375L12.5365 25.375Z" fill="#144E75" transform="matrix(1.37931 0 0 1 1231 175)"/><path d="M14.5 1.8125C14.5 1.8125 14.5 1.8125 14.5 1.8125 14.5 1.8125 14.5 1.8125 14.5 1.8125 10.2104 1.84271 6.73646 5.28646 6.64583 9.57604L6.64583 9.84792C6.67604 10.7844 6.85729 11.6906 7.18958 12.5667 7.52187 13.3823 7.975 14.1375 8.54896 14.8021 9.27396 15.5875 10.0594 17.1281 10.3917 17.7927 10.4823 18.0042 10.6938 18.125 10.9354 18.125L18.0646 18.125C18.3062 18.125 18.5177 18.0042 18.6083 17.7927 18.9406 17.1281 19.726 15.5875 20.451 14.8021 21.025 14.1375 21.5083 13.3823 21.8104 12.5667 22.1427 11.6906 22.324 10.7844 22.3542 9.84792L22.3542 9.57604C22.2635 5.28646 18.7896 1.84271 14.5 1.8125ZM20.5417 9.81771C20.5115 10.5427 20.3604 11.2677 20.1187 11.9323 19.8771 12.5365 19.5448 13.1104 19.0917 13.5938 18.3969 14.4396 17.7927 15.3458 17.3396 16.3125L14.5 16.3125 11.6906 16.3125C11.2073 15.3458 10.6031 14.4396 9.93854 13.5938 9.51562 13.1104 9.15312 12.5365 8.91146 11.9323 8.63958 11.2677 8.51875 10.5427 8.48854 9.81771L8.48854 9.57604C8.54896 6.28333 11.2375 3.625 14.5302 3.59479L14.5302 3.59479 14.5302 3.59479C14.5302 3.59479 14.5302 3.59479 14.5302 3.59479 14.5302 3.59479 14.5302 3.59479 14.5302 3.59479L14.5302 3.59479 14.5302 3.59479C17.8229 3.625 20.5115 6.25313 20.5719 9.57604L20.5719 9.81771Z" fill="#144E75" transform="matrix(1.37931 0 0 1 1231 175)"/></g></g></g><text fill="#144E75" font-family="Calibri,Calibri_MSFontService,sans-serif" font-weight="700" font-size="13" transform="translate(1169.68 192)">Insights</text></g></svg>