<svg width="1280" height="720" xmlns="http://www.w3.org/2000/svg" xmlns:xlink="http://www.w3.org/1999/xlink" overflow="hidden"><defs><filter id="fx0" x="-10%" y="-10%" width="120%" height="120%" filterUnits="userSpaceOnUse" primitiveUnits="userSpaceOnUse"><feComponentTransfer color-interpolation-filters="sRGB"><feFuncR type="discrete" tableValues="0.25098 0.25098"/><feFuncG type="discrete" tableValues="0.25098 0.25098"/><feFuncB type="discrete" tableValues="0.25098 0.25098"/><feFuncA type="linear" slope="0.301961" intercept="0"/></feComponentTransfer><feGaussianBlur stdDeviation="2.66667 2.66667"/></filter><filter id="fx1" x="-10%" y="-10%" width="120%" height="120%" filterUnits="userSpaceOnUse" primitiveUnits="userSpaceOnUse"><feComponentTransfer color-interpolation-filters="sRGB"><feFuncR type="discrete" tableValues="0.0784314 0.0784314"/><feFuncG type="discrete" tableValues="0.305882 0.305882"/><feFuncB type="discrete" tableValues="0.458824 0.458824"/><feFuncA type="linear" slope="0.4" intercept="0"/></feComponentTransfer><feGaussianBlur stdDeviation="4.88889 4.88889"/></filter><filter id="fx2" x="-10%" y="-10%" width="120%" height="120%" filterUnits="userSpaceOnUse" primitiveUnits="userSpaceOnUse"><feComponentTransfer color-interpolation-filters="sRGB"><feFuncR type="discrete" tableValues="0.0784314 0.0784314"/><feFuncG type="discrete" tableValues="0.305882 0.305882"/><feFuncB type="discrete" tableValues="0.458824 0.458824"/><feFuncA type="linear" slope="0.4" intercept="0"/></feComponentTransfer><feGaussianBlur stdDeviation="4.88889 4.88889"/></filter><clipPath id="clip3"><rect x="0" y="0" width="1280" height="720"/></clipPath><linearGradient x1="640" y1="0" x2="640" y2="720" gradientUnits="userSpaceOnUse" spreadMethod="reflect" id="fill4"><stop offset="0" stop-color="#144E75"/><stop offset="0.47" stop-color="#144E75"/><stop offset="0.51" stop-color="#B6C3CC"/><stop offset="1" stop-color="#E5E5E5"/></linearGradient><clipPath id="clip5"><rect x="-2" y="-11" width="162" height="758"/></clipPath><clipPath id="clip6"><rect x="0" y="0" width="159" height="736"/></clipPath><linearGradient x1="69" y1="0" x2="69" y2="720" gradientUnits="userSpaceOnUse" spreadMethod="reflect" id="fill7"><stop offset="0" stop-color="#144E75"/><stop offset="0.47" stop-color="#144E75"/><stop offset="0.51" stop-color="#B6C3CC"/><stop offset="1" stop-color="#E5E5E5"/></linearGradient><clipPath id="clip8"><rect x="-5" y="-5" width="1172" height="152"/></clipPath><clipPath id="clip9"><rect x="0" y="0" width="1148" height="143"/></clipPath><clipPath id="clip10"><rect x="-5" y="-5" width="992" height="595"/></clipPath><clipPath id="clip11"><rect x="0" y="0" width="981" height="580"/></clipPath><clipPath id="clip12"><rect x="1014" y="181" width="48" height="43"/></clipPath><clipPath id="clip13"><rect x="1014" y="181" width="48" height="43"/></clipPath><clipPath id="clip14"><rect x="1014" y="181" width="48" height="43"/></clipPath><clipPath id="clip15"><rect x="1220" y="175" width="40" height="26"/></clipPath><clipPath id="clip16"><rect x="1220" y="175" width="40" height="26"/></clipPath><clipPath id="clip17"><rect x="1220" y="175" width="40" height="26"/></clipPath></defs><g clip-path="url(#clip3)"><rect x="0" y="0" width="1280" height="720" fill="#FFFFFF"/><rect x="0" y="0" width="1280" height="720" fill="url(#fill4)"/><g clip-path="url(#clip5)" filter="url(#fx0)" transform="translate(-1 -8)"><g clip-path="url(#clip6)"><rect x="9" y="0.8" width="140.76" height="734.4" fill="#FF0000"/></g></g><rect x="0" y="0" width="138" height="720" fill="url(#fill7)"/><g clip-path="url(#clip8)" filter="url(#fx1)" transform="translate(147 35)"><g clip-path="url(#clip9)"><path d="M15.6667 34.5173C15.6667 24.2905 23.9571 16 34.1838 16L1132.39 16C1142.62 16 1150.91 24.2905 1150.91 34.5173L1150.91 108.583C1150.91 118.81 1142.62 127.1 1132.39 127.1L34.1838 127.1C23.9571 127.1 15.6667 118.81 15.6667 108.583Z" fill="#E5E5E5" fill-rule="evenodd"/></g></g><path d="M156 69.3339C156 59.2084 164.208 51 174.334 51L1261.67 51C1271.79 51 1280 59.2084 1280 69.3339L1280 142.666C1280 152.792 1271.79 161 1261.67 161L174.334 161C164.208 161 156 152.792 156 142.666Z" fill="#E5E5E5" fill-rule="evenodd"/><g clip-path="url(#clip10)" filter="url(#fx2)" transform="translate(147 155)"><g clip-path="url(#clip11)"><path d="M15.6667 60.8754C15.6667 36.0914 35.758 16 60.542 16L920.191 16C944.975 16 965.067 36.0914 965.067 60.8754L965.067 525.615C965.067 550.399 944.975 570.49 920.191 570.49L60.542 570.49C35.758 570.49 15.6667 550.399 15.6667 525.615Z" fill="#E5E5E5" fill-rule="evenodd"/></g></g><path d="M156 215.431C156 190.892 175.892 171 200.431 171L1051.57 171C1076.11 171 1096 190.892 1096 215.431L1096 675.569C1096 700.107 1076.11 720 1051.57 720L200.431 720C175.892 720 156 700.107 156 675.569Z" fill="#E5E5E5" fill-rule="evenodd"/><g clip-path="url(#clip12)"><g clip-path="url(#clip13)"><g clip-path="url(#clip14)"><path d="M28.1874 22.3958C26.6734 21.1058 24.7071 20.5011 22.8438 19.9189L22.8438 9.08823C24.6529 9.26014 26.3435 10.0642 27.6185 11.3592L29.7685 9.29875C27.9286 7.42704 25.463 6.2995 22.8438 6.13198L22.8438 2.23958 20.1562 2.23958 20.1562 6.30219C19.236 6.48131 18.3481 6.79843 17.5225 7.24281 14.1273 9.09271 12.3939 13.4375 13.7869 17.097 14.8664 19.9189 17.4688 21.1775 20.1562 22.1226L20.1562 33.8491C18.0734 33.5938 16.3445 32.3978 14.9111 30.9062L12.7611 32.9622C13.7849 34.1238 15.0055 35.0958 16.3669 35.8333 17.5568 36.3994 18.8419 36.7381 20.1562 36.8322L20.1562 40.7604 22.8438 40.7604 22.8438 36.7292C25.9254 36.2141 28.7562 34.3194 29.9746 31.3542 31.1929 28.389 30.7495 24.5861 28.1874 22.3958ZM17.9167 17.7957C15.4531 15.7174 16.0533 11.6951 18.6647 10.0289 19.1275 9.73202 19.6295 9.50134 20.1562 9.34354L20.1562 19.0589C19.3453 18.7639 18.5886 18.3371 17.9167 17.7957ZM26.0195 32.0484C25.1452 32.9031 24.0422 33.4865 22.8438 33.7281L22.8438 23.0274C24.6354 23.641 26.6914 24.4204 27.4215 26.3285 28.1516 28.2367 27.417 30.6241 26.0195 32.0484Z" fill="#144E75" transform="matrix(1.11628 0 0 1 1014 181)"/></g></g></g><text fill="#144E75" font-family="Calibri,Calibri_MSFontService,sans-serif" font-weight="700" font-size="21" transform="translate(203.23 201)">Revenue</text><path d="M1112 199C1112 183.536 1124.54 171 1140 171L1252 171C1267.46 171 1280 183.536 1280 199L1280 683C1280 698.464 1267.46 711 1252 711L1140 711C1124.54 711 1112 698.464 1112 683Z" fill="#E5E5E5" fill-rule="evenodd"/><g clip-path="url(#clip15)"><g clip-path="url(#clip16)"><g clip-path="url(#clip17)"><path d="M10.2917 17.3333 15.7083 17.3333C16.1688 17.3333 16.5208 17.6854 16.5208 18.1458 16.5208 18.6063 16.1688 18.9583 15.7083 18.9583L10.2917 18.9583C9.83125 18.9583 9.47917 18.6063 9.47917 18.1458 9.47917 17.6854 9.83125 17.3333 10.2917 17.3333Z" fill="#144E75" transform="matrix(1.53846 0 0 1 1220 175)"/><path d="M10.2917 20.0417 15.7083 20.0417C16.1688 20.0417 16.5208 20.3938 16.5208 20.8542 16.5208 21.3146 16.1688 21.6667 15.7083 21.6667L10.2917 21.6667C9.83125 21.6667 9.47917 21.3146 9.47917 20.8542 9.47917 20.3938 9.83125 20.0417 10.2917 20.0417Z" fill="#144E75" transform="matrix(1.53846 0 0 1 1220 175)"/><path d="M11.2396 22.75C11.3208 23.6708 12.0792 24.375 13 24.375 13.9208 24.375 14.6792 23.6708 14.7604 22.75L11.2396 22.75Z" fill="#144E75" transform="matrix(1.53846 0 0 1 1220 175)"/><path d="M13 1.625C13 1.625 13 1.625 13 1.625 13 1.625 13 1.625 13 1.625 9.15417 1.65208 6.03958 4.73958 5.95833 8.58542L5.95833 8.82917C5.98542 9.66875 6.14792 10.4813 6.44583 11.2667 6.74375 11.9979 7.15 12.675 7.66458 13.2708 8.31458 13.975 9.01875 15.3563 9.31667 15.9521 9.39792 16.1417 9.5875 16.25 9.80417 16.25L16.1958 16.25C16.4125 16.25 16.6021 16.1417 16.6833 15.9521 16.9813 15.3563 17.6854 13.975 18.3354 13.2708 18.85 12.675 19.2833 11.9979 19.5542 11.2667 19.8521 10.4813 20.0146 9.66875 20.0417 8.82917L20.0417 8.58542C19.9604 4.73958 16.8458 1.65208 13 1.625ZM18.4167 8.80208C18.3896 9.45208 18.2542 10.1021 18.0375 10.6979 17.8208 11.2396 17.5229 11.7542 17.1167 12.1875 16.4938 12.9458 15.9521 13.7583 15.5458 14.625L13 14.625 10.4813 14.625C10.0479 13.7583 9.50625 12.9458 8.91042 12.1875 8.53125 11.7542 8.20625 11.2396 7.98958 10.6979 7.74583 10.1021 7.6375 9.45208 7.61042 8.80208L7.61042 8.58542C7.66458 5.63333 10.075 3.25 13.0271 3.22292L13.0271 3.22292 13.0271 3.22292C13.0271 3.22292 13.0271 3.22292 13.0271 3.22292 13.0271 3.22292 13.0271 3.22292 13.0271 3.22292L13.0271 3.22292 13.0271 3.22292C15.9792 3.25 18.3896 5.60625 18.4438 8.58542L18.4438 8.80208Z" fill="#144E75" transform="matrix(1.53846 0 0 1 1220 175)"/></g></g></g><text fill="#144E75" font-family="Calibri,Calibri_MSFontService,sans-serif" font-weight="700" font-size="13" transform="translate(1148.54 192)">Insights</text></g></svg>