<svg width="1280" height="720" xmlns="http://www.w3.org/2000/svg" xmlns:xlink="http://www.w3.org/1999/xlink" overflow="hidden"><defs><filter id="fx0" x="-10%" y="-10%" width="120%" height="120%" filterUnits="userSpaceOnUse" primitiveUnits="userSpaceOnUse"><feComponentTransfer color-interpolation-filters="sRGB"><feFuncR type="discrete" tableValues="0.25098 0.25098"/><feFuncG type="discrete" tableValues="0.25098 0.25098"/><feFuncB type="discrete" tableValues="0.25098 0.25098"/><feFuncA type="linear" slope="0.301961" intercept="0"/></feComponentTransfer><feGaussianBlur stdDeviation="2.66667 2.66667"/></filter><filter id="fx1" x="-10%" y="-10%" width="120%" height="120%" filterUnits="userSpaceOnUse" primitiveUnits="userSpaceOnUse"><feComponentTransfer color-interpolation-filters="sRGB"><feFuncR type="discrete" tableValues="0.0784314 0.0784314"/><feFuncG type="discrete" tableValues="0.305882 0.305882"/><feFuncB type="discrete" tableValues="0.458824 0.458824"/><feFuncA type="linear" slope="0.4" intercept="0"/></feComponentTransfer><feGaussianBlur stdDeviation="4.88889 4.88889"/></filter><filter id="fx2" x="-10%" y="-10%" width="120%" height="120%" filterUnits="userSpaceOnUse" primitiveUnits="userSpaceOnUse"><feComponentTransfer color-interpolation-filters="sRGB"><feFuncR type="discrete" tableValues="0.0784314 0.0784314"/><feFuncG type="discrete" tableValues="0.305882 0.305882"/><feFuncB type="discrete" tableValues="0.458824 0.458824"/><feFuncA type="linear" slope="0.4" intercept="0"/></feComponentTransfer><feGaussianBlur stdDeviation="4.88889 4.88889"/></filter><filter id="fx3" x="-10%" y="-10%" width="120%" height="120%" filterUnits="userSpaceOnUse" primitiveUnits="userSpaceOnUse"><feComponentTransfer color-interpolation-filters="sRGB"><feFuncR type="discrete" tableValues="0.0784314 0.0784314"/><feFuncG type="discrete" tableValues="0.305882 0.305882"/><feFuncB type="discrete" tableValues="0.458824 0.458824"/><feFuncA type="linear" slope="0.4" intercept="0"/></feComponentTransfer><feGaussianBlur stdDeviation="4.88889 4.88889"/></filter><filter id="fx4" x="-10%" y="-10%" width="120%" height="120%" filterUnits="userSpaceOnUse" primitiveUnits="userSpaceOnUse"><feComponentTransfer color-interpolation-filters="sRGB"><feFuncR type="discrete" tableValues="0.0784314 0.0784314"/><feFuncG type="discrete" tableValues="0.305882 0.305882"/><feFuncB type="discrete" tableValues="0.458824 0.458824"/><feFuncA type="linear" slope="0.4" intercept="0"/></feComponentTransfer><feGaussianBlur stdDeviation="4.88889 4.88889"/></filter><clipPath id="clip5"><rect x="0" y="0" width="1280" height="720"/></clipPath><linearGradient x1="640" y1="0" x2="640" y2="720" gradientUnits="userSpaceOnUse" spreadMethod="reflect" id="fill6"><stop offset="0" stop-color="#144E75"/><stop offset="0.47" stop-color="#144E75"/><stop offset="0.51" stop-color="#B6C3CC"/><stop offset="1" stop-color="#E5E5E5"/></linearGradient><clipPath id="clip7"><rect x="-2" y="-11" width="162" height="758"/></clipPath><clipPath id="clip8"><rect x="0" y="0" width="159" height="736"/></clipPath><linearGradient x1="69" y1="0" x2="69" y2="720" gradientUnits="userSpaceOnUse" spreadMethod="reflect" id="fill9"><stop offset="0" stop-color="#144E75"/><stop offset="0.47" stop-color="#144E75"/><stop offset="0.51" stop-color="#B6C3CC"/><stop offset="1" stop-color="#E5E5E5"/></linearGradient><clipPath id="clip10"><rect x="-5" y="-5" width="928" height="195"/></clipPath><clipPath id="clip11"><rect x="0" y="0" width="903" height="186"/></clipPath><clipPath id="clip12"><rect x="-5" y="-5" width="351" height="595"/></clipPath><clipPath id="clip13"><rect x="0" y="0" width="341" height="580"/></clipPath><clipPath id="clip14"><rect x="418" y="181" width="38" height="39"/></clipPath><clipPath id="clip15"><rect x="418" y="181" width="38" height="39"/></clipPath><clipPath id="clip16"><rect x="418" y="181" width="38" height="39"/></clipPath><clipPath id="clip17"><rect x="-5" y="-5" width="351" height="595"/></clipPath><clipPath id="clip18"><rect x="0" y="0" width="341" height="580"/></clipPath><clipPath id="clip19"><rect x="745" y="181" width="38" height="38"/></clipPath><clipPath id="clip20"><rect x="745" y="181" width="38" height="38"/></clipPath><clipPath id="clip21"><rect x="745" y="181" width="38" height="38"/></clipPath><clipPath id="clip22"><rect x="-5" y="-5" width="351" height="595"/></clipPath><clipPath id="clip23"><rect x="0" y="0" width="341" height="580"/></clipPath><clipPath id="clip24"><rect x="1082" y="181" width="39" height="39"/></clipPath><clipPath id="clip25"><rect x="1082" y="181" width="39" height="39"/></clipPath><clipPath id="clip26"><rect x="1082" y="181" width="39" height="39"/></clipPath><clipPath id="clip27"><rect x="1240" y="175" width="33" height="29"/></clipPath><clipPath id="clip28"><rect x="1240" y="175" width="33" height="29"/></clipPath><clipPath id="clip29"><rect x="1240" y="175" width="33" height="29"/></clipPath></defs><g clip-path="url(#clip5)"><rect x="0" y="0" width="1280" height="720" fill="#FFFFFF"/><rect x="0" y="0" width="1280" height="720" fill="url(#fill6)"/><g clip-path="url(#clip7)" filter="url(#fx0)" transform="translate(-1 -8)"><g clip-path="url(#clip8)"><rect x="9" y="0.8" width="140.76" height="734.4" fill="#FF0000"/></g></g><rect x="0" y="0" width="138" height="720" fill="url(#fill9)"/><g clip-path="url(#clip10)" filter="url(#fx1)" transform="translate(392 -7)"><g clip-path="url(#clip11)"><path d="M15.6667 41.5872C15.6667 27.4558 27.1224 16 41.2537 16L877.87 16C892.001 16 903.457 27.4558 903.457 41.5872L903.457 143.933C903.457 158.064 892.001 169.52 877.87 169.52L41.2537 169.52C27.1224 169.52 15.6667 158.064 15.6667 143.933Z" fill="#E5E5E5" fill-rule="evenodd"/></g></g><path d="M401 34.3338C401 20.3423 412.342 9 426.334 9L1254.67 9C1268.66 9 1280 20.3423 1280 34.3338L1280 135.666C1280 149.658 1268.66 161 1254.67 161L426.334 161C412.342 161 401 149.658 401 135.666Z" fill="#E5E5E5" fill-rule="evenodd"/><g clip-path="url(#clip12)" filter="url(#fx2)" transform="translate(157 155)"><g clip-path="url(#clip13)"><path d="M15.6667 67.5111C15.6667 39.0623 38.729 16 67.1778 16L273.216 16C301.664 16 324.727 39.0623 324.727 67.5111L324.727 518.979C324.727 547.428 301.664 570.49 273.216 570.49L67.1778 570.49C38.729 570.49 15.6667 547.428 15.6667 518.979Z" fill="#E5E5E5" fill-rule="evenodd"/></g></g><path d="M166 222.001C166 193.834 188.834 171 217.001 171L420.999 171C449.166 171 472 193.834 472 222.001L472 668.999C472 697.166 449.166 720 420.999 720L217.001 720C188.834 720 166 697.166 166 668.999Z" fill="#E5E5E5" fill-rule="evenodd"/><g clip-path="url(#clip14)"><g clip-path="url(#clip15)"><g clip-path="url(#clip16)"><path d="M24.9098 19.7917C23.5719 18.6517 21.8342 18.1173 20.1875 17.6027L20.1875 8.03146C21.7863 8.18338 23.2803 8.89398 24.4071 10.0383L26.3071 8.2175C24.6811 6.56343 22.5022 5.567 20.1875 5.41896L20.1875 1.97917 17.8125 1.97917 17.8125 5.56938C16.9992 5.72767 16.2146 6.00792 15.485 6.40063 12.4846 8.03542 10.9527 11.875 12.1838 15.109 13.1377 17.6027 15.4375 18.715 17.8125 19.5502L17.8125 29.9131C15.9719 29.6875 14.444 28.6306 13.1773 27.3125L11.2773 29.1294C12.182 30.1559 13.2607 31.0149 14.4638 31.6667 15.5153 32.1669 16.651 32.4663 17.8125 32.5494L17.8125 36.0208 20.1875 36.0208 20.1875 32.4583C22.9108 32.0031 25.4125 30.3288 26.4892 27.7083 27.5658 25.0879 27.174 21.7273 24.9098 19.7917ZM15.8333 15.7265C13.6562 13.8898 14.1867 10.3352 16.4944 8.86271 16.9034 8.60039 17.347 8.39653 17.8125 8.25708L17.8125 16.8427C17.0958 16.5821 16.4272 16.2049 15.8333 15.7265ZM22.994 28.3219C22.2214 29.0772 21.2466 29.5927 20.1875 29.8063L20.1875 20.3498C21.7708 20.8921 23.5877 21.5808 24.2329 23.2671 24.8781 24.9533 24.229 27.0631 22.994 28.3219Z" fill="#144E75" transform="matrix(1 0 0 1.02632 418 181)"/></g></g></g><text fill="#144E75" font-family="Calibri,Calibri_MSFontService,sans-serif" font-weight="700" font-size="21" transform="translate(201.653 205)">Revenue</text><g clip-path="url(#clip17)" filter="url(#fx3)" transform="translate(492 155)"><g clip-path="url(#clip18)"><path d="M15.6667 67.5111C15.6667 39.0623 38.729 16 67.1778 16L273.216 16C301.664 16 324.727 39.0623 324.727 67.5111L324.727 518.979C324.727 547.428 301.664 570.49 273.216 570.49L67.1778 570.49C38.729 570.49 15.6667 547.428 15.6667 518.979Z" fill="#E5E5E5" fill-rule="evenodd"/></g></g><path d="M501 222.001C501 193.834 523.834 171 552.001 171L755.999 171C784.166 171 807 193.834 807 222.001L807 668.999C807 697.166 784.166 720 755.999 720L552.001 720C523.834 720 501 697.166 501 668.999Z" fill="#E5E5E5" fill-rule="evenodd"/><g clip-path="url(#clip19)"><g clip-path="url(#clip20)"><g clip-path="url(#clip21)"><path d="M779.042 209.104 777.854 210.292 750.542 210.292 748.958 208.708 748.958 200.792 750.542 199.208 777.854 199.208 779.042 200.396 779.042 209.104ZM746.583 196.833 746.583 212.667 781.417 212.667 781.417 196.833 746.583 196.833Z" fill="#144E75"/><path d="M767.167 204.75C767.167 206.936 765.749 208.708 764 208.708 762.251 208.708 760.833 206.936 760.833 204.75 760.833 202.564 762.251 200.792 764 200.792 765.749 200.792 767.167 202.564 767.167 204.75Z" fill="#144E75"/><path d="M755.292 204.75C755.292 205.406 754.76 205.938 754.104 205.938 753.448 205.938 752.917 205.406 752.917 204.75 752.917 204.094 753.448 203.562 754.104 203.562 754.76 203.562 755.292 204.094 755.292 204.75Z" fill="#144E75"/><path d="M775.083 204.75C775.083 205.406 774.552 205.938 773.896 205.938 773.24 205.938 772.708 205.406 772.708 204.75 772.708 204.094 773.24 203.562 773.896 203.562 774.552 203.562 775.083 204.094 775.083 204.75Z" fill="#144E75"/><path d="M771.085 189.194 771.679 190.698 774.054 190.223 772.392 186.067 751.096 194.775 763.287 192.36Z" fill="#144E75"/><path d="M769.027 195.25 775.281 194.023 775.558 195.25 777.973 195.25 777.181 191.212 756.875 195.25Z" fill="#144E75"/></g></g></g><text fill="#144E75" font-family="Calibri,Calibri_MSFontService,sans-serif" font-weight="700" font-size="21" transform="translate(543.32 205)">Gross Profit</text><g clip-path="url(#clip22)" filter="url(#fx4)" transform="translate(827 155)"><g clip-path="url(#clip23)"><path d="M15.6667 67.5111C15.6667 39.0623 38.729 16 67.1778 16L273.216 16C301.664 16 324.727 39.0623 324.727 67.5111L324.727 518.979C324.727 547.428 301.664 570.49 273.216 570.49L67.1778 570.49C38.729 570.49 15.6667 547.428 15.6667 518.979Z" fill="#E5E5E5" fill-rule="evenodd"/></g></g><path d="M836 222.001C836 193.834 858.834 171 887.001 171L1091 171C1119.17 171 1142 193.834 1142 222.001L1142 668.999C1142 697.166 1119.17 720 1091 720L887.001 720C858.834 720 836 697.166 836 668.999Z" fill="#E5E5E5" fill-rule="evenodd"/><g clip-path="url(#clip24)"><g clip-path="url(#clip25)"><g clip-path="url(#clip26)"><path d="M1092.97 207.812C1092.97 209.383 1091.7 210.656 1090.12 210.656 1088.55 210.656 1087.28 209.383 1087.28 207.812 1087.28 206.242 1088.55 204.969 1090.12 204.969 1091.7 204.969 1092.97 206.242 1092.97 207.812Z" fill="#144E75"/><path d="M1116.53 207.812C1116.53 209.383 1115.26 210.656 1113.69 210.656 1112.12 210.656 1110.84 209.383 1110.84 207.812 1110.84 206.242 1112.12 204.969 1113.69 204.969 1115.26 204.969 1116.53 206.242 1116.53 207.812Z" fill="#144E75"/><path d="M1083.62 190.75 1106.38 190.75 1106.38 200.5 1083.62 200.5Z" fill="#144E75"/><path d="M1109.62 194.812 1112.06 194.812C1112.79 194.812 1113.44 195.3 1113.61 195.991L1114.42 198.794C1114.42 198.834 1114.46 198.834 1114.46 198.875L1109.62 198.875 1109.62 194.812ZM1112.06 193.188 1108 193.188 1108 198.875 1108 201.312 1108 207.812 1109.62 207.812C1109.62 205.578 1111.45 203.75 1113.69 203.75 1115.92 203.75 1117.75 205.578 1117.75 207.812 1118.64 207.812 1119.38 207.081 1119.38 206.188L1119.38 202.125C1119.38 201.597 1119.13 201.15 1118.72 200.825L1116.57 199.2C1116.29 198.997 1116.08 198.672 1116 198.347L1115.19 195.544C1114.78 194.163 1113.48 193.188 1112.06 193.188Z" fill="#144E75"/><path d="M1106.38 207.812 1094.19 207.812C1094.19 205.578 1092.36 203.75 1090.12 203.75 1087.89 203.75 1086.06 205.578 1086.06 207.812L1083.62 207.812 1083.62 202.125 1106.38 202.125 1106.38 207.812Z" fill="#144E75"/></g></g></g><text fill="#144E75" font-family="Calibri,Calibri_MSFontService,sans-serif" font-weight="700" font-size="21" transform="translate(870.887 205)">Units Sold</text><path d="M1156 191.667C1156 180.253 1165.25 171 1176.67 171L1259.33 171C1270.75 171 1280 180.253 1280 191.667L1280 690.333C1280 701.747 1270.75 711 1259.33 711L1176.67 711C1165.25 711 1156 701.747 1156 690.333Z" fill="#E5E5E5" fill-rule="evenodd"/><g clip-path="url(#clip27)"><g clip-path="url(#clip28)"><g clip-path="url(#clip29)"><path d="M11.4792 19.3333 17.5208 19.3333C18.0344 19.3333 18.4271 19.726 18.4271 20.2396 18.4271 20.7531 18.0344 21.1458 17.5208 21.1458L11.4792 21.1458C10.9656 21.1458 10.5729 20.7531 10.5729 20.2396 10.5729 19.726 10.9656 19.3333 11.4792 19.3333Z" fill="#144E75" transform="matrix(1.13793 0 0 1 1240 175)"/><path d="M11.4792 22.3542 17.5208 22.3542C18.0344 22.3542 18.4271 22.7469 18.4271 23.2604 18.4271 23.774 18.0344 24.1667 17.5208 24.1667L11.4792 24.1667C10.9656 24.1667 10.5729 23.774 10.5729 23.2604 10.5729 22.7469 10.9656 22.3542 11.4792 22.3542Z" fill="#144E75" transform="matrix(1.13793 0 0 1 1240 175)"/><path d="M12.5365 25.375C12.6271 26.4021 13.4729 27.1875 14.5 27.1875 15.5271 27.1875 16.3729 26.4021 16.4635 25.375L12.5365 25.375Z" fill="#144E75" transform="matrix(1.13793 0 0 1 1240 175)"/><path d="M14.5 1.8125C14.5 1.8125 14.5 1.8125 14.5 1.8125 14.5 1.8125 14.5 1.8125 14.5 1.8125 10.2104 1.84271 6.73646 5.28646 6.64583 9.57604L6.64583 9.84792C6.67604 10.7844 6.85729 11.6906 7.18958 12.5667 7.52187 13.3823 7.975 14.1375 8.54896 14.8021 9.27396 15.5875 10.0594 17.1281 10.3917 17.7927 10.4823 18.0042 10.6938 18.125 10.9354 18.125L18.0646 18.125C18.3062 18.125 18.5177 18.0042 18.6083 17.7927 18.9406 17.1281 19.726 15.5875 20.451 14.8021 21.025 14.1375 21.5083 13.3823 21.8104 12.5667 22.1427 11.6906 22.324 10.7844 22.3542 9.84792L22.3542 9.57604C22.2635 5.28646 18.7896 1.84271 14.5 1.8125ZM20.5417 9.81771C20.5115 10.5427 20.3604 11.2677 20.1187 11.9323 19.8771 12.5365 19.5448 13.1104 19.0917 13.5938 18.3969 14.4396 17.7927 15.3458 17.3396 16.3125L14.5 16.3125 11.6906 16.3125C11.2073 15.3458 10.6031 14.4396 9.93854 13.5938 9.51562 13.1104 9.15312 12.5365 8.91146 11.9323 8.63958 11.2677 8.51875 10.5427 8.48854 9.81771L8.48854 9.57604C8.54896 6.28333 11.2375 3.625 14.5302 3.59479L14.5302 3.59479 14.5302 3.59479C14.5302 3.59479 14.5302 3.59479 14.5302 3.59479 14.5302 3.59479 14.5302 3.59479 14.5302 3.59479L14.5302 3.59479 14.5302 3.59479C17.8229 3.625 20.5115 6.25313 20.5719 9.57604L20.5719 9.81771Z" fill="#144E75" transform="matrix(1.13793 0 0 1 1240 175)"/></g></g></g><text fill="#144E75" font-family="Calibri,Calibri_MSFontService,sans-serif" font-weight="700" font-size="13" transform="translate(1185.62 192)">Insights</text></g></svg>