<svg width="48" height="48" xmlns="http://www.w3.org/2000/svg" xmlns:xlink="http://www.w3.org/1999/xlink" overflow="hidden"><defs><clipPath id="clip0"><rect x="45" y="0" width="48" height="48"/></clipPath></defs><g clip-path="url(#clip0)" transform="translate(-45 0)"><path d="M73 25.25C73 26.35 72.1 27.25 71 27.25L69 27.25C67.9 27.25 67 26.35 67 25.25L67 24.25 50 24.25 50 38.25C50 39.35 50.9 40.25 52 40.25L88 40.25C89.1 40.25 90 39.35 90 38.25L90 24.25 73 24.25 73 25.25Z"/><path d="M88 12.25 78 12.25 78 9C78 7.05 76.45 5.5 74.5 5.5L65.5 5.5C63.55 5.5 62 7.05 62 9L62 12.25 52 12.25C50.9 12.25 50 13.15 50 14.25L50 22.25 67 22.25 67 21.25 73 21.25 73 22.25 90 22.25 90 14.25C90 13.15 89.1 12.25 88 12.25M65 12.25 65 9C65 8.7 65.2 8.5 65.5 8.5L74.5 8.5C74.8 8.5 75 8.7 75 9L75 12.25 65 12.25Z"/></g></svg>