<svg width="48" height="48" xmlns="http://www.w3.org/2000/svg" xmlns:xlink="http://www.w3.org/1999/xlink" overflow="hidden"><defs><clipPath id="clip0"><rect x="60" y="424" width="48" height="48"/></clipPath></defs><g clip-path="url(#clip0)" transform="translate(-60 -424)"><path d="M88 449.25C88 450.35 87.1 451.25 86 451.25L84 451.25C82.9 451.25 82 450.35 82 449.25L82 448.25 65 448.25 65 462.25C65 463.35 65.9 464.25 67 464.25L103 464.25C104.1 464.25 105 463.35 105 462.25L105 448.25 88 448.25 88 449.25Z" fill="#144E75"/><path d="M103 436.25 93 436.25 93 433C93 431.05 91.45 429.5 89.5 429.5L80.5 429.5C78.55 429.5 77 431.05 77 433L77 436.25 67 436.25C65.9 436.25 65 437.15 65 438.25L65 446.25 82 446.25 82 445.25 88 445.25 88 446.25 105 446.25 105 438.25C105 437.15 104.1 436.25 103 436.25M80 436.25 80 433C80 432.7 80.2 432.5 80.5 432.5L89.5 432.5C89.8 432.5 90 432.7 90 433L90 436.25 80 436.25Z" fill="#144E75"/></g></svg>