<svg width="48" height="48" xmlns="http://www.w3.org/2000/svg" xmlns:xlink="http://www.w3.org/1999/xlink" overflow="hidden"><defs><clipPath id="clip0"><rect x="348" y="7" width="48" height="48"/></clipPath></defs><g clip-path="url(#clip0)" transform="translate(-348 -7)"><path d="M376 32.25C376 33.35 375.1 34.25 374 34.25L372 34.25C370.9 34.25 370 33.35 370 32.25L370 31.25 353 31.25 353 45.25C353 46.35 353.9 47.25 355 47.25L391 47.25C392.1 47.25 393 46.35 393 45.25L393 31.25 376 31.25 376 32.25Z" fill="#E5E5E5"/><path d="M391 19.25 381 19.25 381 16C381 14.05 379.45 12.5 377.5 12.5L368.5 12.5C366.55 12.5 365 14.05 365 16L365 19.25 355 19.25C353.9 19.25 353 20.15 353 21.25L353 29.25 370 29.25 370 28.25 376 28.25 376 29.25 393 29.25 393 21.25C393 20.15 392.1 19.25 391 19.25M368 19.25 368 16C368 15.7 368.2 15.5 368.5 15.5L377.5 15.5C377.8 15.5 378 15.7 378 16L378 19.25 368 19.25Z" fill="#E5E5E5"/></g></svg>