<svg width="290" height="223" xmlns="http://www.w3.org/2000/svg" xmlns:xlink="http://www.w3.org/1999/xlink" overflow="hidden"><defs><clipPath id="clip0"><rect x="96" y="0" width="290" height="223"/></clipPath><clipPath id="clip1"><rect x="155" y="0" width="166" height="165"/></clipPath><clipPath id="clip2"><rect x="155" y="0" width="166" height="165"/></clipPath><clipPath id="clip3"><rect x="155" y="0" width="166" height="165"/></clipPath></defs><g clip-path="url(#clip0)" transform="translate(-96 0)"><g clip-path="url(#clip1)"><g clip-path="url(#clip2)"><g clip-path="url(#clip3)"><path d="M251.25 86.7969C251.25 90.5781 248.156 93.6719 244.375 93.6719L237.5 93.6719C233.719 93.6719 230.625 90.5781 230.625 86.7969L230.625 83.3594 172.188 83.3594 172.188 131.484C172.188 135.266 175.281 138.359 179.063 138.359L302.813 138.359C306.594 138.359 309.688 135.266 309.688 131.484L309.688 83.3594 251.25 83.3594 251.25 86.7969Z" fill="#E5E5E5"/><path d="M302.813 42.1094 268.438 42.1094 268.438 30.9375C268.438 24.2344 263.109 18.9062 256.406 18.9062L225.469 18.9062C218.766 18.9062 213.438 24.2344 213.438 30.9375L213.438 42.1094 179.063 42.1094C175.281 42.1094 172.188 45.2031 172.188 48.9844L172.188 76.4844 230.625 76.4844 230.625 73.0469 251.25 73.0469 251.25 76.4844 309.688 76.4844 309.688 48.9844C309.688 45.2031 306.594 42.1094 302.813 42.1094M223.75 42.1094 223.75 30.9375C223.75 29.9062 224.438 29.2188 225.469 29.2188L256.406 29.2188C257.438 29.2188 258.125 29.9062 258.125 30.9375L258.125 42.1094 223.75 42.1094Z" fill="#E5E5E5"/></g></g></g><text fill="#FFFFFF" font-family="Arial,Arial_MSFontService,sans-serif" font-weight="400" font-size="41" transform="matrix(1 0 0 1 151.655 189)">Executive</text></g></svg>