<svg width="401" height="401" xmlns="http://www.w3.org/2000/svg" xmlns:xlink="http://www.w3.org/1999/xlink" overflow="hidden"><defs><clipPath id="clip0"><rect x="1964" y="1073" width="401" height="401"/></clipPath></defs><g clip-path="url(#clip0)" transform="translate(-1964 -1073)"><path d="M2152.89 1377.13C2100.49 1368.51 2062.09 1323.14 2062.24 1270.03 2062.32 1263.46 2062.99 1256.9 2064.25 1250.44L2064.58 1250.44 2072.23 1263.68C2074.54 1267.69 2079.65 1269.06 2083.65 1266.75 2087.66 1264.45 2089.03 1259.33 2086.72 1255.33L2068.97 1224.63C2067.86 1222.72 2066.05 1221.32 2063.92 1220.74 2061.77 1220.17 2059.49 1220.47 2057.57 1221.58L2026.66 1239.41C2022.57 1241.55 2020.99 1246.6 2023.13 1250.69 2025.26 1254.78 2030.31 1256.36 2034.4 1254.22 2034.61 1254.11 2034.81 1253.99 2035.01 1253.87L2047.79 1246.47C2046.31 1254.24 2045.55 1262.13 2045.54 1270.03 2045.35 1331.25 2089.57 1383.58 2149.96 1393.59L2151.38 1393.59C2156 1393.96 2160.04 1390.52 2160.41 1385.91 2160.78 1381.29 2157.33 1377.25 2152.72 1376.88Z" stroke="#144E75" stroke-width="4.17695" fill="#144E75"/><path d="M2296.16 1270.03C2296.18 1255.11 2293.53 1240.3 2288.35 1226.3 2286.74 1221.97 2281.92 1219.78 2277.59 1221.39 2273.27 1223.01 2271.07 1227.82 2272.69 1232.15 2293.6 1288.36 2264.99 1350.89 2208.77 1371.81 2208.37 1371.96 2207.97 1372.1 2207.57 1372.25L2207.57 1372.25 2215.17 1358.96C2217.48 1354.95 2216.09 1349.82 2212.08 1347.52 2208.06 1345.21 2202.94 1346.59 2200.63 1350.61L2183.09 1381.39C2180.79 1385.4 2182.18 1390.5 2186.18 1392.8 2186.18 1392.8 2186.18 1392.8 2186.18 1392.8L2216.96 1410.38C2220.98 1412.69 2226.1 1411.31 2228.41 1407.29 2230.72 1403.28 2229.33 1398.15 2225.32 1395.85L2212.29 1388.45C2262.69 1370.97 2296.39 1323.38 2296.16 1270.03Z" stroke="#144E75" stroke-width="4.17695" fill="#144E75"/><path d="M2225.15 1186.37C2220.54 1186.37 2216.8 1190.11 2216.8 1194.72 2216.8 1199.33 2220.54 1203.07 2225.15 1203.07L2259.49 1203.07C2259.81 1203.09 2260.13 1203.09 2260.45 1203.07 2262.06 1203.07 2263.63 1202.59 2264.96 1201.7L2265.54 1201.32 2265.79 1201.11 2265.79 1201.11 2266.34 1200.69C2267.97 1199.13 2268.91 1196.98 2268.93 1194.72L2268.93 1159.3C2268.93 1154.68 2265.19 1150.94 2260.57 1150.94 2255.96 1150.94 2252.22 1154.68 2252.22 1159.3L2252.22 1174.54 2252.22 1174.54C2199.54 1129.66 2120.45 1135.97 2075.56 1188.65 2075.37 1188.88 2075.18 1189.1 2074.99 1189.33 2072.01 1192.86 2072.46 1198.14 2075.99 1201.11 2079.52 1204.09 2084.79 1203.64 2087.77 1200.11 2126.13 1154.42 2194.17 1148.22 2240.15 1186.24Z" stroke="#144E75" stroke-width="4.17695" fill="#144E75"/><text fill="#144E75" font-family="Arial,Arial_MSFontService,sans-serif" font-weight="700" font-size="64" transform="matrix(1 0 0 1 2087.03 1296)">Reset</text></g></svg>