<svg width="401" height="401" xmlns="http://www.w3.org/2000/svg" xmlns:xlink="http://www.w3.org/1999/xlink" overflow="hidden"><defs><clipPath id="clip0"><rect x="608" y="-68" width="401" height="401"/></clipPath></defs><g clip-path="url(#clip0)" transform="translate(-608 68)"><path d="M188.888 304.133C136.49 295.505 98.0925 250.136 98.2449 197.033 98.3239 190.456 98.9947 183.899 100.25 177.442L100.584 177.442 108.228 190.684C110.535 194.686 115.65 196.061 119.652 193.754 123.655 191.447 125.03 186.332 122.723 182.33L104.97 151.628C103.865 149.716 102.048 148.319 99.9158 147.743 97.7725 147.167 95.4881 147.468 93.5666 148.579L62.6562 166.415C58.5681 168.554 56.9875 173.602 59.1262 177.69 61.2648 181.778 66.3128 183.358 70.4009 181.22 70.609 181.111 70.8124 180.994 71.0104 180.868L83.7922 173.474C82.3056 181.239 81.5504 189.127 81.5366 197.033 81.347 258.251 125.571 310.576 185.964 320.591L187.384 320.591C191.998 320.96 196.037 317.519 196.406 312.905 196.776 308.291 193.335 304.252 188.721 303.883Z" stroke="#E5E5E5" stroke-width="4.17694" fill="#E5E5E5" transform="matrix(1 0 0 1 608 -68.0001)"/><path d="M332.161 197.033C332.179 182.107 329.534 167.297 324.35 153.299 322.735 148.974 317.92 146.776 313.594 148.391 309.269 150.006 307.071 154.821 308.686 159.147 329.602 215.362 300.987 277.889 244.771 298.805 244.37 298.955 243.968 299.102 243.566 299.246L243.566 299.246 251.168 285.963C253.475 281.949 252.091 276.825 248.077 274.518 244.063 272.211 238.939 273.595 236.632 277.609L219.088 308.394C216.793 312.396 218.176 317.502 222.179 319.797 222.179 319.797 222.179 319.797 222.179 319.797L252.964 337.383C256.978 339.69 262.102 338.306 264.409 334.292 266.716 330.278 265.332 325.154 261.318 322.847L248.286 315.453C298.685 297.97 332.393 250.378 332.161 197.033Z" stroke="#E5E5E5" stroke-width="4.17694" fill="#E5E5E5" transform="matrix(1 0 0 1 608 -68.0001)"/><path d="M261.151 113.366C256.537 113.366 252.797 117.106 252.797 121.72 252.797 126.334 256.537 130.074 261.151 130.074L295.487 130.074C295.807 130.095 296.128 130.095 296.447 130.074 298.055 130.075 299.626 129.595 300.959 128.696L301.543 128.32 301.794 128.111 301.794 128.111 302.337 127.693C303.972 126.134 304.907 123.98 304.927 121.72L304.927 86.2985C304.927 81.6845 301.187 77.9443 296.573 77.9443 291.959 77.9443 288.219 81.6845 288.219 86.2985L288.219 101.545 288.219 101.545C235.541 56.6575 156.45 62.9724 111.562 115.65 111.369 115.876 111.177 116.104 110.985 116.332 108.009 119.861 108.458 125.135 111.988 128.111 115.517 131.087 120.791 130.638 123.767 127.109 162.129 81.4159 230.167 75.2242 276.147 113.241Z" stroke="#E5E5E5" stroke-width="4.17694" fill="#E5E5E5" transform="matrix(1 0 0 1 608 -68.0001)"/><text fill="#FFFFFF" font-family="Arial,Arial_MSFontService,sans-serif" font-weight="700" font-size="64" transform="matrix(1 0 0 1 731.143 155)">Reset</text></g></svg>