<svg width="414" height="292" xmlns="http://www.w3.org/2000/svg" xmlns:xlink="http://www.w3.org/1999/xlink" overflow="hidden"><defs><clipPath id="clip0"><rect x="34" y="701" width="414" height="292"/></clipPath><clipPath id="clip1"><rect x="155" y="700" width="166" height="166"/></clipPath><clipPath id="clip2"><rect x="155" y="700" width="166" height="166"/></clipPath><clipPath id="clip3"><rect x="155" y="700" width="166" height="166"/></clipPath></defs><g clip-path="url(#clip0)" transform="translate(-34 -701)"><g clip-path="url(#clip1)"><g clip-path="url(#clip2)"><g clip-path="url(#clip3)"><path d="M289.922 731.078 288.203 715.609 269.297 734.516 270.328 743.453 242.828 770.953C240.422 769.75 237.672 768.891 234.75 768.891 225.297 768.891 217.563 776.625 217.563 786.078 217.563 795.531 225.297 803.266 234.75 803.266 244.203 803.266 251.938 795.531 251.938 786.078 251.938 783.156 251.25 780.578 250.047 778.172L277.547 750.672 286.484 751.703 305.391 732.797 289.922 731.078Z" fill="#E5E5E5"/><path d="M291.297 756.516 289.063 758.922 285.797 758.578 282.188 758.062C287 766.312 289.922 775.766 289.922 786.078 289.922 816.328 265.172 841.078 234.922 841.078 204.672 841.078 179.922 816.328 179.922 786.078 179.922 755.828 204.672 731.078 234.922 731.078 245.063 731.078 254.688 733.828 262.938 738.812L262.594 735.375 262.078 731.937 264.484 729.531 265.688 728.328C256.406 723.516 246.094 720.766 234.922 720.766 198.828 720.766 169.609 749.984 169.609 786.078 169.609 822.172 198.828 851.391 234.922 851.391 271.016 851.391 300.234 822.172 300.234 786.078 300.234 774.906 297.484 764.594 292.5 755.484L291.297 756.516Z" fill="#E5E5E5"/><path d="M263.625 774.391C265.172 778 265.859 781.953 265.859 786.078 265.859 803.094 251.938 817.016 234.922 817.016 217.906 817.016 203.984 803.094 203.984 786.078 203.984 769.062 217.906 755.141 234.922 755.141 239.047 755.141 243 756 246.609 757.375L254.344 749.641C248.5 746.547 241.969 744.828 234.922 744.828 212.234 744.828 193.672 763.391 193.672 786.078 193.672 808.766 212.234 827.328 234.922 827.328 257.609 827.328 276.172 808.766 276.172 786.078 276.172 779.031 274.453 772.5 271.359 766.656L263.625 774.391Z" fill="#E5E5E5"/></g></g></g><text fill="#FFFFFF" font-family="Arial,Arial_MSFontService,sans-serif" font-weight="400" font-size="41" transform="matrix(1 0 0 1 118.351 908)">Sales Person <tspan font-size="41" x="4.58333" y="50">Performance</tspan></text></g></svg>