<svg width="291" height="232" xmlns="http://www.w3.org/2000/svg" xmlns:xlink="http://www.w3.org/1999/xlink" overflow="hidden"><defs><clipPath id="clip0"><rect x="98" y="234" width="291" height="232"/></clipPath><clipPath id="clip1"><rect x="155" y="234" width="166" height="166"/></clipPath><clipPath id="clip2"><rect x="155" y="234" width="166" height="166"/></clipPath><clipPath id="clip3"><rect x="155" y="234" width="166" height="166"/></clipPath></defs><g clip-path="url(#clip0)" transform="translate(-98 -234)"><g clip-path="url(#clip1)"><g clip-path="url(#clip2)"><g clip-path="url(#clip3)"><path d="M208.281 287.281 189.375 287.281 189.375 275.25 208.281 275.25 208.281 287.281ZM234.063 275.25 234.063 287.281 215.156 287.281 215.156 275.25 234.063 275.25ZM259.844 275.25 259.844 287.281 240.938 287.281 240.938 275.25 259.844 275.25ZM285.625 275.25 285.625 287.281 266.719 287.281 266.719 275.25 285.625 275.25ZM285.625 306.188 266.719 306.188 266.719 294.156 285.625 294.156 285.625 306.188ZM285.625 320.797 266.719 322.516 266.719 313.063 285.625 313.063 285.625 320.797ZM208.281 313.063 208.281 327.672 189.375 329.391 189.375 313.063 208.281 313.063ZM208.281 306.188 189.375 306.188 189.375 294.156 208.281 294.156 208.281 306.188ZM234.063 306.188 215.156 306.188 215.156 294.156 234.063 294.156 234.063 306.188ZM240.938 306.188 240.938 294.156 259.844 294.156 259.844 306.188 240.938 306.188ZM234.063 325.438 215.156 327.156 215.156 313.063 234.063 313.063 234.063 325.438ZM240.938 313.063 259.844 313.063 259.844 323.031 240.938 324.75 240.938 313.063ZM295.938 330.25 295.938 264.938 189.375 264.938 189.375 263.219C189.375 254.625 182.5 247.75 173.906 247.75 170.984 247.75 168.75 249.984 168.75 252.906 168.75 255.828 170.984 258.063 173.906 258.063 176.828 258.063 179.063 260.297 179.063 263.219L179.063 349.156C179.063 357.75 185.938 364.625 194.531 364.625L199.688 364.625 275.313 364.625 290.781 364.625C293.703 364.625 295.938 362.391 295.938 359.469 295.938 356.547 293.703 354.313 290.781 354.313L194.531 354.313C191.609 354.313 189.375 352.078 189.375 349.156L189.375 339.703 295.938 330.25Z" fill="#E5E5E5"/><path d="M210 374.938C210 380.633 205.383 385.25 199.688 385.25 193.992 385.25 189.375 380.633 189.375 374.938 189.375 369.242 193.992 364.625 199.688 364.625 205.383 364.625 210 369.242 210 374.938Z" fill="#E5E5E5"/><path d="M285.625 374.938C285.625 380.633 281.008 385.25 275.313 385.25 269.617 385.25 265 380.633 265 374.938 265 369.242 269.617 364.625 275.313 364.625 281.008 364.625 285.625 369.242 285.625 374.938Z" fill="#E5E5E5"/></g></g></g><text fill="#FFFFFF" font-family="Arial,Arial_MSFontService,sans-serif" font-weight="400" font-size="41" transform="matrix(1 0 0 1 192.137 432)">Sales</text></g></svg>