<svg width="414" height="253" xmlns="http://www.w3.org/2000/svg" xmlns:xlink="http://www.w3.org/1999/xlink" overflow="hidden"><defs><clipPath id="clip0"><rect x="26" y="463" width="414" height="253"/></clipPath><clipPath id="clip1"><rect x="155" y="463" width="166" height="166"/></clipPath><clipPath id="clip2"><rect x="155" y="463" width="166" height="166"/></clipPath><clipPath id="clip3"><rect x="155" y="463" width="166" height="166"/></clipPath></defs><g clip-path="url(#clip0)" transform="translate(-26 -463)"><g clip-path="url(#clip1)"><g clip-path="url(#clip2)"><g clip-path="url(#clip3)"><path d="M245.664 530.117 230.522 530.117C229.098 530.117 227.944 531.272 227.944 532.695 227.944 534.119 229.098 535.273 230.522 535.273L245.664 535.273C247.088 535.273 248.242 534.119 248.242 532.695 248.242 531.272 247.088 530.117 245.664 530.117Z" fill="#E5E5E5"/><path d="M238.084 543.781C240.989 543.779 243.394 541.524 243.584 538.625L232.602 538.625C232.783 541.521 235.183 543.778 238.084 543.781Z" fill="#E5E5E5"/><path d="M238.084 480.944 238.084 480.944C226.081 481.026 216.333 490.667 216.119 502.669L216.119 503.425C216.177 506.061 216.695 508.667 217.648 511.125 218.537 513.421 219.829 515.54 221.464 517.381 223.502 519.955 225.233 522.759 226.62 525.734 226.909 526.307 227.492 526.671 228.133 526.68L248.07 526.68C248.711 526.671 249.294 526.307 249.583 525.734 250.972 522.759 252.702 519.956 254.739 517.381 256.364 515.536 257.65 513.418 258.538 511.125 259.465 508.689 259.982 506.116 260.067 503.511L260.067 502.755C259.89 490.716 250.124 481.027 238.084 480.944ZM254.997 503.288C254.926 505.317 254.519 507.321 253.794 509.217 253.116 510.92 252.145 512.491 250.923 513.858 248.992 516.198 247.337 518.753 245.991 521.472L230.195 521.472C228.843 518.753 227.182 516.198 225.245 513.858 224.029 512.49 223.064 510.92 222.392 509.217 221.667 507.321 221.26 505.317 221.189 503.288L221.189 502.669C221.348 493.435 228.85 486.017 238.084 485.963L238.084 485.963C247.322 486.017 254.829 493.432 254.997 502.669Z" fill="#E5E5E5"/><path d="M229.8 508.255 238.892 490.5 238.892 500.778 248.328 498.905 238.892 516.281 238.892 506.192 229.8 508.255Z" fill="#E5E5E5"/><path d="M287.069 555.005C287.069 562.39 281.082 568.377 273.697 568.377 266.312 568.377 260.325 562.39 260.325 555.005 260.325 547.62 266.312 541.633 273.697 541.633 281.082 541.633 287.069 547.62 287.069 555.005Z" fill="#E5E5E5"/><path d="M215.741 555.005C215.741 562.39 209.754 568.377 202.369 568.377 194.984 568.377 188.997 562.39 188.997 555.005 188.997 547.62 194.984 541.633 202.369 541.633 209.754 541.633 215.741 547.62 215.741 555.005Z" fill="#E5E5E5"/><path d="M297.759 579.961C293.908 576.961 289.451 574.833 284.697 573.722 281.119 572.678 277.422 572.101 273.697 572.003 269.963 571.995 266.251 572.575 262.697 573.722 259.137 574.671 255.733 576.13 252.591 578.053 252.384 578.294 252.195 578.534 251.972 578.758 256.97 580.103 261.647 582.441 265.722 585.633 268.938 587.98 270.815 591.741 270.758 595.722L270.758 598.781 300.441 598.781 300.441 585.323C300.492 583.202 299.488 581.193 297.759 579.961Z" fill="#E5E5E5"/><path d="M205.342 595.722C205.346 591.854 207.119 588.201 210.155 585.805L210.361 585.633 210.584 585.478C214.706 582.546 219.266 580.284 224.094 578.775 223.75 578.414 223.441 578.036 223.114 577.658 220.094 575.89 216.835 574.564 213.438 573.722 209.86 572.677 206.163 572.099 202.438 572.003 198.703 571.996 194.992 572.576 191.438 573.722 186.75 575.015 182.327 577.128 178.375 579.961 176.682 581.23 175.668 583.208 175.625 585.323L175.625 598.781 205.342 598.781Z" fill="#E5E5E5"/><path d="M211.289 609.094 211.289 595.722C211.297 593.619 212.289 591.641 213.97 590.377 217.916 587.531 222.34 585.418 227.033 584.138 230.585 582.984 234.298 582.404 238.033 582.419 241.759 582.506 245.457 583.084 249.033 584.138 253.796 585.237 258.261 587.367 262.113 590.377 263.834 591.605 264.832 593.608 264.777 595.722L264.777 609.094Z" fill="#E5E5E5"/><path d="M251.405 565.403C251.405 572.788 245.418 578.775 238.033 578.775 230.648 578.775 224.661 572.788 224.661 565.403 224.661 558.018 230.648 552.031 238.033 552.031 245.418 552.031 251.405 558.018 251.405 565.403Z" fill="#E5E5E5"/></g></g></g><text fill="#FFFFFF" font-family="Arial,Arial_MSFontService,sans-serif" font-weight="400" font-size="41" transform="matrix(1 0 0 1 66.8436 682)">Customer Insights</text></g></svg>