<svg width="38" height="39" xmlns="http://www.w3.org/2000/svg" xmlns:xlink="http://www.w3.org/1999/xlink" overflow="hidden"><defs><clipPath id="clip0"><rect x="418" y="181" width="38" height="39"/></clipPath></defs><g clip-path="url(#clip0)" transform="translate(-418 -181)"><path d="M24.9098 19.7917C23.5719 18.6517 21.8342 18.1173 20.1875 17.6027L20.1875 8.03146C21.7863 8.18338 23.2803 8.89398 24.4071 10.0383L26.3071 8.2175C24.6811 6.56343 22.5022 5.567 20.1875 5.41896L20.1875 1.97917 17.8125 1.97917 17.8125 5.56938C16.9992 5.72767 16.2146 6.00792 15.485 6.40063 12.4846 8.03542 10.9527 11.875 12.1838 15.109 13.1377 17.6027 15.4375 18.715 17.8125 19.5502L17.8125 29.9131C15.9719 29.6875 14.444 28.6306 13.1773 27.3125L11.2773 29.1294C12.182 30.1559 13.2607 31.0149 14.4638 31.6667 15.5153 32.1669 16.651 32.4663 17.8125 32.5494L17.8125 36.0208 20.1875 36.0208 20.1875 32.4583C22.9108 32.0031 25.4125 30.3288 26.4892 27.7083 27.5658 25.0879 27.174 21.7273 24.9098 19.7917ZM15.8333 15.7265C13.6562 13.8898 14.1867 10.3352 16.4944 8.86271 16.9034 8.60039 17.347 8.39653 17.8125 8.25708L17.8125 16.8427C17.0958 16.5821 16.4272 16.2049 15.8333 15.7265ZM22.994 28.3219C22.2214 29.0772 21.2466 29.5927 20.1875 29.8063L20.1875 20.3498C21.7708 20.8921 23.5877 21.5808 24.2329 23.2671 24.8781 24.9533 24.229 27.0631 22.994 28.3219Z" fill="#144E75" transform="matrix(1 0 0 1.02632 418 181)"/></g></svg>