<svg width="1280" height="720" xmlns="http://www.w3.org/2000/svg" xmlns:xlink="http://www.w3.org/1999/xlink" overflow="hidden"><defs><filter id="fx0" x="-10%" y="-10%" width="120%" height="120%" filterUnits="userSpaceOnUse" primitiveUnits="userSpaceOnUse"><feComponentTransfer color-interpolation-filters="sRGB"><feFuncR type="discrete" tableValues="0.25098 0.25098"/><feFuncG type="discrete" tableValues="0.25098 0.25098"/><feFuncB type="discrete" tableValues="0.25098 0.25098"/><feFuncA type="linear" slope="0.301961" intercept="0"/></feComponentTransfer><feGaussianBlur stdDeviation="2.66667 2.66667"/></filter><filter id="fx1" x="-10%" y="-10%" width="120%" height="120%" filterUnits="userSpaceOnUse" primitiveUnits="userSpaceOnUse"><feComponentTransfer color-interpolation-filters="sRGB"><feFuncR type="discrete" tableValues="0.0784314 0.0784314"/><feFuncG type="discrete" tableValues="0.305882 0.305882"/><feFuncB type="discrete" tableValues="0.458824 0.458824"/><feFuncA type="linear" slope="0.4" intercept="0"/></feComponentTransfer><feGaussianBlur stdDeviation="4.88889 4.88889"/></filter><filter id="fx2" x="-10%" y="-10%" width="120%" height="120%" filterUnits="userSpaceOnUse" primitiveUnits="userSpaceOnUse"><feComponentTransfer color-interpolation-filters="sRGB"><feFuncR type="discrete" tableValues="0.0784314 0.0784314"/><feFuncG type="discrete" tableValues="0.305882 0.305882"/><feFuncB type="discrete" tableValues="0.458824 0.458824"/><feFuncA type="linear" slope="0.4" intercept="0"/></feComponentTransfer><feGaussianBlur stdDeviation="4.88889 4.88889"/></filter><filter id="fx3" x="-10%" y="-10%" width="120%" height="120%" filterUnits="userSpaceOnUse" primitiveUnits="userSpaceOnUse"><feComponentTransfer color-interpolation-filters="sRGB"><feFuncR type="discrete" tableValues="0 0"/><feFuncG type="discrete" tableValues="0 0"/><feFuncB type="discrete" tableValues="0 0"/><feFuncA type="linear" slope="0.4" intercept="0"/></feComponentTransfer><feGaussianBlur stdDeviation="2.22222 2.22222"/></filter><filter id="fx4" x="-10%" y="-10%" width="120%" height="120%" filterUnits="userSpaceOnUse" primitiveUnits="userSpaceOnUse"><feComponentTransfer color-interpolation-filters="sRGB"><feFuncR type="discrete" tableValues="0 0"/><feFuncG type="discrete" tableValues="0 0"/><feFuncB type="discrete" tableValues="0 0"/><feFuncA type="linear" slope="0.4" intercept="0"/></feComponentTransfer><feGaussianBlur stdDeviation="2.22222 2.22222"/></filter><filter id="fx5" x="-10%" y="-10%" width="120%" height="120%" filterUnits="userSpaceOnUse" primitiveUnits="userSpaceOnUse"><feComponentTransfer color-interpolation-filters="sRGB"><feFuncR type="discrete" tableValues="0 0"/><feFuncG type="discrete" tableValues="0 0"/><feFuncB type="discrete" tableValues="0 0"/><feFuncA type="linear" slope="0.4" intercept="0"/></feComponentTransfer><feGaussianBlur stdDeviation="2.22222 2.22222"/></filter><filter id="fx6" x="-10%" y="-10%" width="120%" height="120%" filterUnits="userSpaceOnUse" primitiveUnits="userSpaceOnUse"><feComponentTransfer color-interpolation-filters="sRGB"><feFuncR type="discrete" tableValues="0 0"/><feFuncG type="discrete" tableValues="0 0"/><feFuncB type="discrete" tableValues="0 0"/><feFuncA type="linear" slope="0.4" intercept="0"/></feComponentTransfer><feGaussianBlur stdDeviation="2.22222 2.22222"/></filter><clipPath id="clip7"><rect x="0" y="0" width="1280" height="720"/></clipPath><linearGradient x1="640" y1="0" x2="640" y2="720" gradientUnits="userSpaceOnUse" spreadMethod="reflect" id="fill8"><stop offset="0" stop-color="#144E75"/><stop offset="0.47" stop-color="#144E75"/><stop offset="0.51" stop-color="#B6C3CC"/><stop offset="1" stop-color="#E5E5E5"/></linearGradient><clipPath id="clip9"><rect x="-2" y="-11" width="162" height="758"/></clipPath><clipPath id="clip10"><rect x="0" y="0" width="159" height="736"/></clipPath><linearGradient x1="69" y1="0" x2="69" y2="720" gradientUnits="userSpaceOnUse" spreadMethod="reflect" id="fill11"><stop offset="0" stop-color="#144E75"/><stop offset="0.47" stop-color="#144E75"/><stop offset="0.51" stop-color="#B6C3CC"/><stop offset="1" stop-color="#E5E5E5"/></linearGradient><clipPath id="clip12"><rect x="-5" y="-5" width="1172" height="152"/></clipPath><clipPath id="clip13"><rect x="0" y="0" width="1148" height="143"/></clipPath><clipPath id="clip14"><rect x="-5" y="-5" width="992" height="595"/></clipPath><clipPath id="clip15"><rect x="0" y="0" width="981" height="580"/></clipPath><clipPath id="clip16"><rect x="1219" y="175" width="34" height="33"/></clipPath><clipPath id="clip17"><rect x="1219" y="175" width="34" height="33"/></clipPath><clipPath id="clip18"><rect x="1219" y="175" width="34" height="33"/></clipPath><clipPath id="clip19"><rect x="-2" y="-2" width="397" height="258"/></clipPath><clipPath id="clip20"><rect x="0" y="0" width="394" height="255"/></clipPath><clipPath id="clip21"><rect x="-4" y="-2" width="402" height="258"/></clipPath><clipPath id="clip22"><rect x="0" y="0" width="395" height="254"/></clipPath><clipPath id="clip23"><rect x="-2" y="-2" width="523" height="258"/></clipPath><clipPath id="clip24"><rect x="0" y="0" width="518" height="255"/></clipPath><clipPath id="clip25"><rect x="-2" y="-2" width="523" height="258"/></clipPath><clipPath id="clip26"><rect x="0" y="0" width="518" height="254"/></clipPath></defs><g clip-path="url(#clip7)"><rect x="0" y="0" width="1280" height="720" fill="#FFFFFF"/><rect x="0" y="0" width="1280" height="720" fill="url(#fill8)"/><g clip-path="url(#clip9)" filter="url(#fx0)" transform="translate(-1 -8)"><g clip-path="url(#clip10)"><rect x="9" y="0.8" width="140.76" height="734.4" fill="#FF0000"/></g></g><rect x="0" y="0" width="138" height="720" fill="url(#fill11)"/><g clip-path="url(#clip12)" filter="url(#fx1)" transform="translate(147 35)"><g clip-path="url(#clip13)"><path d="M15.6667 34.5173C15.6667 24.2905 23.9571 16 34.1838 16L1132.39 16C1142.62 16 1150.91 24.2905 1150.91 34.5173L1150.91 108.583C1150.91 118.81 1142.62 127.1 1132.39 127.1L34.1838 127.1C23.9571 127.1 15.6667 118.81 15.6667 108.583Z" fill="#E5E5E5" fill-rule="evenodd"/></g></g><path d="M156 69.3339C156 59.2084 164.208 51 174.334 51L1261.67 51C1271.79 51 1280 59.2084 1280 69.3339L1280 142.666C1280 152.792 1271.79 161 1261.67 161L174.334 161C164.208 161 156 152.792 156 142.666Z" fill="#E5E5E5" fill-rule="evenodd"/><g clip-path="url(#clip14)" filter="url(#fx2)" transform="translate(147 155)"><g clip-path="url(#clip15)"><path d="M15.6667 60.8754C15.6667 36.0914 35.758 16 60.542 16L920.191 16C944.975 16 965.067 36.0914 965.067 60.8754L965.067 525.615C965.067 550.399 944.975 570.49 920.191 570.49L60.542 570.49C35.758 570.49 15.6667 550.399 15.6667 525.615Z" fill="#E5E5E5" fill-rule="evenodd"/></g></g><path d="M156 215.431C156 190.892 175.892 171 200.431 171L1051.57 171C1076.11 171 1096 190.892 1096 215.431L1096 675.569C1096 700.107 1076.11 720 1051.57 720L200.431 720C175.892 720 156 700.107 156 675.569Z" fill="#E5E5E5" fill-rule="evenodd"/><path d="M1108 199.667C1108 183.835 1120.83 171 1136.67 171L1251.33 171C1267.17 171 1280 183.835 1280 199.667L1280 682.333C1280 698.165 1267.17 711 1251.33 711L1136.67 711C1120.83 711 1108 698.165 1108 682.333Z" fill="#E5E5E5" fill-rule="evenodd"/><g clip-path="url(#clip16)"><g clip-path="url(#clip17)"><g clip-path="url(#clip18)"><path d="M13.0625 22 19.9375 22C20.5219 22 20.9688 22.4469 20.9688 23.0312 20.9688 23.6156 20.5219 24.0625 19.9375 24.0625L13.0625 24.0625C12.4781 24.0625 12.0312 23.6156 12.0312 23.0312 12.0312 22.4469 12.4781 22 13.0625 22Z" fill="#144E75" transform="matrix(1.0303 0 0 1 1219 175)"/><path d="M13.0625 25.4375 19.9375 25.4375C20.5219 25.4375 20.9688 25.8844 20.9688 26.4688 20.9688 27.0531 20.5219 27.5 19.9375 27.5L13.0625 27.5C12.4781 27.5 12.0312 27.0531 12.0312 26.4688 12.0312 25.8844 12.4781 25.4375 13.0625 25.4375Z" fill="#144E75" transform="matrix(1.0303 0 0 1 1219 175)"/><path d="M14.2656 28.875C14.3687 30.0438 15.3312 30.9375 16.5 30.9375 17.6688 30.9375 18.6313 30.0438 18.7344 28.875L14.2656 28.875Z" fill="#144E75" transform="matrix(1.0303 0 0 1 1219 175)"/><path d="M16.5 2.0625C16.5 2.0625 16.5 2.0625 16.5 2.0625 16.5 2.0625 16.5 2.0625 16.5 2.0625 11.6187 2.09687 7.66562 6.01562 7.5625 10.8969L7.5625 11.2062C7.59688 12.2719 7.80313 13.3031 8.18125 14.3 8.55937 15.2281 9.075 16.0875 9.72812 16.8438 10.5531 17.7375 11.4469 19.4906 11.825 20.2469 11.9281 20.4875 12.1688 20.625 12.4438 20.625L20.5562 20.625C20.8312 20.625 21.0719 20.4875 21.175 20.2469 21.5531 19.4906 22.4469 17.7375 23.2719 16.8438 23.925 16.0875 24.475 15.2281 24.8187 14.3 25.1969 13.3031 25.4031 12.2719 25.4375 11.2062L25.4375 10.8969C25.3344 6.01562 21.3813 2.09687 16.5 2.0625ZM23.375 11.1719C23.3406 11.9969 23.1688 12.8219 22.8937 13.5781 22.6188 14.2656 22.2406 14.9188 21.725 15.4688 20.9344 16.4312 20.2469 17.4625 19.7313 18.5625L16.5 18.5625 13.3031 18.5625C12.7531 17.4625 12.0656 16.4312 11.3094 15.4688 10.8281 14.9188 10.4156 14.2656 10.1406 13.5781 9.83125 12.8219 9.69375 11.9969 9.65938 11.1719L9.65938 10.8969C9.72812 7.15 12.7875 4.125 16.5344 4.09062L16.5344 4.09062 16.5344 4.09062C16.5344 4.09062 16.5344 4.09062 16.5344 4.09062 16.5344 4.09062 16.5344 4.09062 16.5344 4.09062L16.5344 4.09062 16.5344 4.09062C20.2812 4.125 23.3406 7.11563 23.4094 10.8969L23.4094 11.1719Z" fill="#144E75" transform="matrix(1.0303 0 0 1 1219 175)"/></g></g></g><text fill="#144E75" font-family="Calibri,Calibri_MSFontService,sans-serif" font-weight="700" font-size="19" transform="translate(1137.21 195)">Insights</text><g clip-path="url(#clip19)" filter="url(#fx3)" transform="translate(171 216)"><g clip-path="url(#clip20)"><path d="M8 27.6148C8 16.9613 16.6363 8.325 27.2898 8.325L366.71 8.325C377.364 8.325 386 16.9613 386 27.6148L386 227.385C386 238.039 377.364 246.675 366.71 246.675L27.2898 246.675C16.6363 246.675 8 238.039 8 227.385Z" fill="#E5E5E5" fill-rule="evenodd"/></g></g><path d="M188 248.371C188 238.225 196.225 230 206.371 230L529.629 230C539.775 230 548 238.225 548 248.371L548 438.629C548 448.775 539.775 457 529.629 457L206.371 457C196.225 457 188 448.775 188 438.629Z" fill="#E5E5E5" fill-rule="evenodd"/><g clip-path="url(#clip21)" filter="url(#fx4)" transform="translate(173 466)"><g clip-path="url(#clip22)"><path d="M7.97501 27.5546C7.97501 16.9482 16.5732 8.35001 27.1795 8.35001L367.82 8.35001C378.427 8.35001 387.025 16.9482 387.025 27.5546L387.025 226.445C387.025 237.052 378.427 245.65 367.82 245.65L27.1795 245.65C16.5732 245.65 7.97501 237.052 7.97501 226.445Z" fill="#E5E5E5" fill-rule="evenodd"/></g></g><path d="M190 498.29C190 488.189 198.189 480 208.29 480L532.71 480C542.811 480 551 488.189 551 498.29L551 687.71C551 697.811 542.811 706 532.71 706L208.29 706C198.189 706 190 697.811 190 687.71Z" fill="#E5E5E5" fill-rule="evenodd"/><g clip-path="url(#clip23)" filter="url(#fx5)" transform="translate(568 216)"><g clip-path="url(#clip24)"><path d="M8.04999 27.6145C8.04999 16.9612 16.6862 8.325 27.3394 8.325L490.661 8.325C501.314 8.325 509.95 16.9612 509.95 27.6145L509.95 227.386C509.95 238.039 501.314 246.675 490.661 246.675L27.3394 246.675C16.6862 246.675 8.04999 238.039 8.04999 227.386Z" fill="#E5E5E5" fill-rule="evenodd"/></g></g><path d="M588 248.371C588 238.225 596.225 230 606.371 230L1047.63 230C1057.78 230 1066 238.225 1066 248.371L1066 438.629C1066 448.775 1057.78 457 1047.63 457L606.371 457C596.225 457 588 448.775 588 438.629Z" fill="#E5E5E5" fill-rule="evenodd"/><g clip-path="url(#clip25)" filter="url(#fx6)" transform="translate(568 464)"><g clip-path="url(#clip26)"><path d="M8.04999 27.5549C8.04999 16.9483 16.6483 8.35001 27.2549 8.35001L490.745 8.35001C501.352 8.35001 509.95 16.9483 509.95 27.5549L509.95 226.445C509.95 237.052 501.352 245.65 490.745 245.65L27.2549 245.65C16.6483 245.65 8.04999 237.052 8.04999 226.445Z" fill="#E5E5E5" fill-rule="evenodd"/></g></g><path d="M588 496.29C588 486.189 596.189 478 606.29 478L1047.71 478C1057.81 478 1066 486.189 1066 496.29L1066 685.71C1066 695.811 1057.81 704 1047.71 704L606.29 704C596.189 704 588 695.811 588 685.71Z" fill="#E5E5E5" fill-rule="evenodd"/></g></svg>