<svg width="38" height="38" xmlns="http://www.w3.org/2000/svg" xmlns:xlink="http://www.w3.org/1999/xlink" overflow="hidden"><defs><clipPath id="clip0"><rect x="745" y="181" width="38" height="38"/></clipPath></defs><g clip-path="url(#clip0)" transform="translate(-745 -181)"><path d="M779.042 209.104 777.854 210.292 750.542 210.292 748.958 208.708 748.958 200.792 750.542 199.208 777.854 199.208 779.042 200.396 779.042 209.104ZM746.583 196.833 746.583 212.667 781.417 212.667 781.417 196.833 746.583 196.833Z" fill="#144E75"/><path d="M767.167 204.75C767.167 206.936 765.749 208.708 764 208.708 762.251 208.708 760.833 206.936 760.833 204.75 760.833 202.564 762.251 200.792 764 200.792 765.749 200.792 767.167 202.564 767.167 204.75Z" fill="#144E75"/><path d="M755.292 204.75C755.292 205.406 754.76 205.938 754.104 205.938 753.448 205.938 752.917 205.406 752.917 204.75 752.917 204.094 753.448 203.562 754.104 203.562 754.76 203.562 755.292 204.094 755.292 204.75Z" fill="#144E75"/><path d="M775.083 204.75C775.083 205.406 774.552 205.938 773.896 205.938 773.24 205.938 772.708 205.406 772.708 204.75 772.708 204.094 773.24 203.562 773.896 203.562 774.552 203.562 775.083 204.094 775.083 204.75Z" fill="#144E75"/><path d="M771.085 189.194 771.679 190.698 774.054 190.223 772.392 186.067 751.096 194.775 763.287 192.36Z" fill="#144E75"/><path d="M769.027 195.25 775.281 194.023 775.558 195.25 777.973 195.25 777.181 191.212 756.875 195.25Z" fill="#144E75"/></g></svg>