<svg width="39" height="39" xmlns="http://www.w3.org/2000/svg" xmlns:xlink="http://www.w3.org/1999/xlink" overflow="hidden"><defs><clipPath id="clip0"><rect x="1082" y="181" width="39" height="39"/></clipPath></defs><g clip-path="url(#clip0)" transform="translate(-1082 -181)"><path d="M1092.97 207.812C1092.97 209.383 1091.7 210.656 1090.12 210.656 1088.55 210.656 1087.28 209.383 1087.28 207.812 1087.28 206.242 1088.55 204.969 1090.12 204.969 1091.7 204.969 1092.97 206.242 1092.97 207.812Z" fill="#144E75"/><path d="M1116.53 207.812C1116.53 209.383 1115.26 210.656 1113.69 210.656 1112.12 210.656 1110.84 209.383 1110.84 207.812 1110.84 206.242 1112.12 204.969 1113.69 204.969 1115.26 204.969 1116.53 206.242 1116.53 207.812Z" fill="#144E75"/><path d="M1083.62 190.75 1106.38 190.75 1106.38 200.5 1083.62 200.5Z" fill="#144E75"/><path d="M1109.62 194.812 1112.06 194.812C1112.79 194.812 1113.44 195.3 1113.61 195.991L1114.42 198.794C1114.42 198.834 1114.46 198.834 1114.46 198.875L1109.62 198.875 1109.62 194.812ZM1112.06 193.188 1108 193.188 1108 198.875 1108 201.312 1108 207.812 1109.62 207.812C1109.62 205.578 1111.45 203.75 1113.69 203.75 1115.92 203.75 1117.75 205.578 1117.75 207.812 1118.64 207.812 1119.38 207.081 1119.38 206.188L1119.38 202.125C1119.38 201.597 1119.13 201.15 1118.72 200.825L1116.57 199.2C1116.29 198.997 1116.08 198.672 1116 198.347L1115.19 195.544C1114.78 194.163 1113.48 193.188 1112.06 193.188Z" fill="#144E75"/><path d="M1106.38 207.812 1094.19 207.812C1094.19 205.578 1092.36 203.75 1090.12 203.75 1087.89 203.75 1086.06 205.578 1086.06 207.812L1083.62 207.812 1083.62 202.125 1106.38 202.125 1106.38 207.812Z" fill="#144E75"/></g></svg>