<svg width="414" height="239" xmlns="http://www.w3.org/2000/svg" xmlns:xlink="http://www.w3.org/1999/xlink" overflow="hidden"><defs><clipPath id="clip0"><rect x="26" y="1003" width="414" height="239"/></clipPath><clipPath id="clip1"><rect x="155" y="1003" width="166" height="166"/></clipPath><clipPath id="clip2"><rect x="155" y="1003" width="166" height="166"/></clipPath><clipPath id="clip3"><rect x="155" y="1003" width="166" height="166"/></clipPath></defs><g clip-path="url(#clip0)" transform="translate(-26 -1003)"><g clip-path="url(#clip1)"><g clip-path="url(#clip2)"><g clip-path="url(#clip3)"><path d="M250.098 1070.32 251.559 1065.99 248.259 1062.69 243.928 1064.15C242.802 1063.52 241.601 1063.03 240.353 1062.69L238.325 1058.65 233.719 1058.65 231.673 1062.71C230.421 1063.05 229.215 1063.54 228.081 1064.17L223.75 1062.71 220.45 1066.01 221.825 1070.34C221.166 1071.46 220.657 1072.66 220.313 1073.92L216.256 1075.94 216.256 1080.48 220.313 1082.53C220.647 1083.78 221.138 1084.98 221.773 1086.1L220.313 1090.43 223.75 1093.73 228.081 1092.25C229.206 1092.9 230.407 1093.39 231.656 1093.73L233.684 1097.77 238.291 1097.77 240.336 1093.8C241.563 1093.47 242.746 1092.99 243.859 1092.38L248.173 1093.85 251.473 1090.54 250.013 1086.22C250.669 1085.09 251.194 1083.88 251.577 1082.63L255.616 1080.6 255.616 1075.94 251.559 1073.9C251.231 1072.65 250.74 1071.45 250.098 1070.32ZM236.005 1085.16C232.208 1085.16 229.13 1082.08 229.13 1078.28 229.13 1074.48 232.208 1071.41 236.005 1071.41 239.779 1071.46 242.824 1074.51 242.88 1078.28 242.88 1082.08 239.802 1085.16 236.005 1085.16Z" fill="#E5E5E5"/><path d="M250.769 1131.55 221.189 1131.55C218.451 1131.71 216.361 1134.06 216.523 1136.8 216.671 1139.31 218.676 1141.31 221.189 1141.46L250.769 1141.46C253.507 1141.3 255.597 1138.95 255.435 1136.21 255.287 1133.7 253.282 1131.69 250.769 1131.55Z" fill="#E5E5E5"/><path d="M235.988 1158.25C241.599 1158.25 246.265 1153.93 246.713 1148.34L225.245 1148.34C225.701 1153.93 230.372 1158.25 235.988 1158.25Z" fill="#E5E5E5"/><path d="M278.905 1079.43 278.905 1077.95C278.467 1054.49 259.4 1035.66 235.936 1035.52L235.936 1035.52C212.472 1035.66 193.405 1054.49 192.967 1077.95L192.967 1079.43C193.124 1084.52 194.135 1089.55 195.958 1094.3 197.697 1098.78 200.223 1102.92 203.417 1106.52 207.353 1110.8 211.65 1119.14 213.472 1122.85 214.029 1123.97 215.176 1124.68 216.428 1124.67L255.444 1124.67C256.696 1124.68 257.843 1123.97 258.4 1122.85 260.222 1119.14 264.519 1110.82 268.455 1106.52 271.648 1102.92 274.175 1098.78 275.914 1094.3 277.737 1089.55 278.748 1084.52 278.905 1079.43ZM269.005 1079.28C268.883 1083.23 268.11 1087.13 266.719 1090.83 265.414 1094.16 263.528 1097.23 261.15 1099.9 257.335 1104.44 254.064 1109.42 251.405 1114.72L220.467 1114.72C217.838 1109.4 214.596 1104.41 210.808 1099.85 208.43 1097.18 206.544 1094.11 205.239 1090.78 203.818 1087.08 203.017 1083.18 202.867 1079.23L202.867 1077.99C203.175 1059.94 217.835 1045.44 235.884 1045.33L235.884 1045.33C253.934 1045.44 268.594 1059.94 268.902 1077.99Z" fill="#E5E5E5"/><path d="M236.314 1028.78C238.213 1028.78 239.752 1027.24 239.752 1025.34L239.752 1013.31C239.752 1011.41 238.213 1009.88 236.314 1009.88 234.416 1009.88 232.877 1011.41 232.877 1013.31L232.877 1025.34C232.877 1027.24 234.416 1028.78 236.314 1028.78Z" fill="#E5E5E5"/><path d="M195.528 1043.89C196.869 1045.22 199.034 1045.22 200.375 1043.89 201.708 1042.55 201.708 1040.38 200.375 1039.04L191.867 1030.5C190.458 1029.23 188.284 1029.34 187.012 1030.75 185.828 1032.06 185.831 1034.06 187.02 1035.36Z" fill="#E5E5E5"/><path d="M274.728 1045.56C275.644 1045.56 276.523 1045.19 277.169 1044.54L285.659 1035.95C286.767 1034.41 286.415 1032.26 284.873 1031.15 283.656 1030.28 282.013 1030.29 280.813 1031.19L272.219 1039.78C270.886 1041.12 270.886 1043.29 272.219 1044.63 272.896 1045.26 273.801 1045.6 274.728 1045.56Z" fill="#E5E5E5"/><path d="M182.93 1074.33 170.898 1074.33C169 1074.33 167.461 1075.87 167.461 1077.77 167.461 1079.66 169 1081.2 170.898 1081.2L182.93 1081.2C184.828 1081.2 186.367 1079.66 186.367 1077.77 186.367 1075.87 184.828 1074.33 182.93 1074.33Z" fill="#E5E5E5"/><path d="M195.528 1111.52 187.02 1120.12C185.578 1121.35 185.41 1123.52 186.645 1124.96 187.88 1126.4 190.05 1126.57 191.492 1125.34 191.627 1125.22 191.752 1125.1 191.867 1124.96L200.375 1116.37C201.61 1114.93 201.442 1112.76 200 1111.52 198.713 1110.42 196.815 1110.42 195.528 1111.52Z" fill="#E5E5E5"/><path d="M277.169 1110.87C275.897 1109.46 273.723 1109.35 272.314 1110.62 270.905 1111.89 270.794 1114.07 272.066 1115.48 272.142 1115.56 272.221 1115.64 272.305 1115.72L280.898 1124.31C282.114 1125.77 284.281 1125.97 285.74 1124.75 287.199 1123.54 287.396 1121.37 286.181 1119.91 286.016 1119.71 285.83 1119.53 285.625 1119.38Z" fill="#E5E5E5"/><path d="M301.094 1074.21 289.063 1074.21C287.164 1074.21 285.625 1075.75 285.625 1077.65 285.625 1079.54 287.164 1081.08 289.063 1081.08L301.094 1081.08C302.992 1081.08 304.531 1079.54 304.531 1077.65 304.531 1075.75 302.992 1074.21 301.094 1074.21Z" fill="#E5E5E5"/></g></g></g><text fill="#FFFFFF" font-family="Arial,Arial_MSFontService,sans-serif" font-weight="400" font-size="41" transform="matrix(1 0 0 1 84.0311 1207)">What<tspan font-size="41" x="96.25" y="0">-</tspan>If Analysis</text></g></svg>